<svg width="326" height="57" viewBox="0 0 326 57" fill="none" xmlns="http://www.w3.org/2000/svg">
<g filter="url(#filter0_d_138_86)">
<rect x="42" width="241" height="49" rx="11" fill="#D9D9D9"/>
<path d="M98.6521 27.4C98.6521 26.7067 98.8067 26.1147 99.1161 25.624C99.4254 25.1333 99.8307 24.76 100.332 24.504C100.844 24.248 101.404 24.12 102.012 24.12C102.545 24.12 103.015 24.1893 103.42 24.328C103.825 24.456 104.188 24.6373 104.508 24.872C104.828 25.096 105.111 25.336 105.356 25.592V22.68C104.908 22.328 104.417 22.0507 103.884 21.848C103.351 21.6453 102.673 21.544 101.852 21.544C100.956 21.544 100.129 21.6827 99.3721 21.96C98.6147 22.2373 97.9641 22.6373 97.4201 23.16C96.8761 23.6827 96.4547 24.3013 96.1561 25.016C95.8574 25.7307 95.7081 26.5253 95.7081 27.4C95.7081 28.2747 95.8574 29.0693 96.1561 29.784C96.4547 30.4987 96.8761 31.1173 97.4201 31.64C97.9641 32.1627 98.6147 32.5627 99.3721 32.84C100.129 33.1173 100.956 33.256 101.852 33.256C102.673 33.256 103.351 33.1547 103.884 32.952C104.417 32.7493 104.908 32.472 105.356 32.12V29.208C105.111 29.464 104.828 29.704 104.508 29.928C104.188 30.152 103.825 30.3333 103.42 30.472C103.015 30.6107 102.545 30.68 102.012 30.68C101.404 30.68 100.844 30.552 100.332 30.296C99.8307 30.04 99.4254 29.6667 99.1161 29.176C98.8067 28.6747 98.6521 28.0827 98.6521 27.4ZM106.895 29.32C106.895 30.088 107.076 30.76 107.439 31.336C107.801 31.912 108.303 32.36 108.943 32.68C109.583 33 110.303 33.16 111.103 33.16C111.903 33.16 112.617 33 113.247 32.68C113.887 32.36 114.388 31.912 114.751 31.336C115.124 30.76 115.311 30.088 115.311 29.32C115.311 28.5413 115.124 27.864 114.751 27.288C114.388 26.712 113.887 26.264 113.247 25.944C112.617 25.624 111.903 25.464 111.103 25.464C110.303 25.464 109.583 25.624 108.943 25.944C108.303 26.264 107.801 26.712 107.439 27.288C107.076 27.864 106.895 28.5413 106.895 29.32ZM109.375 29.32C109.375 28.936 109.455 28.6053 109.615 28.328C109.775 28.0507 109.983 27.8373 110.239 27.688C110.495 27.5387 110.783 27.464 111.103 27.464C111.412 27.464 111.695 27.5387 111.951 27.688C112.217 27.8373 112.425 28.0507 112.575 28.328C112.735 28.6053 112.815 28.936 112.815 29.32C112.815 29.704 112.735 30.0347 112.575 30.312C112.425 30.5787 112.217 30.7867 111.951 30.936C111.695 31.0853 111.412 31.16 111.103 31.16C110.783 31.16 110.495 31.0853 110.239 30.936C109.983 30.7867 109.775 30.5787 109.615 30.312C109.455 30.0347 109.375 29.704 109.375 29.32ZM119.148 25.64H116.764V33H119.148V25.64ZM121.276 28.136L122.316 26.072C122.188 25.88 122.002 25.7307 121.756 25.624C121.511 25.5173 121.255 25.464 120.988 25.464C120.583 25.464 120.194 25.5973 119.82 25.864C119.447 26.1307 119.143 26.4933 118.908 26.952C118.684 27.4107 118.572 27.9333 118.572 28.52L119.148 29.368C119.148 29.016 119.196 28.7173 119.292 28.472C119.388 28.2267 119.527 28.04 119.708 27.912C119.89 27.784 120.098 27.72 120.332 27.72C120.546 27.72 120.722 27.7573 120.86 27.832C121.01 27.9067 121.148 28.008 121.276 28.136ZM122.478 25.64V27.64H127.406V25.64H122.478ZM123.774 23.08V33H126.094V23.08H123.774ZM132.18 33.16C133.119 33.16 133.914 32.9787 134.564 32.616C135.226 32.2533 135.748 31.7093 136.132 30.984L133.972 30.456C133.791 30.776 133.546 31.016 133.236 31.176C132.938 31.336 132.575 31.416 132.148 31.416C131.775 31.416 131.46 31.336 131.204 31.176C130.948 31.0053 130.756 30.76 130.628 30.44C130.5 30.12 130.436 29.736 130.436 29.288C130.447 28.7973 130.511 28.392 130.628 28.072C130.756 27.7413 130.943 27.496 131.188 27.336C131.434 27.176 131.738 27.096 132.1 27.096C132.388 27.096 132.639 27.16 132.852 27.288C133.066 27.416 133.231 27.5973 133.348 27.832C133.466 28.0667 133.524 28.344 133.524 28.664C133.524 28.7387 133.503 28.8347 133.46 28.952C133.428 29.0587 133.386 29.1493 133.332 29.224L133.908 28.488H129.364V29.832H136.084C136.106 29.7573 136.116 29.6667 136.116 29.56C136.116 29.4427 136.116 29.3253 136.116 29.208C136.116 28.4187 135.962 27.7467 135.652 27.192C135.343 26.6373 134.895 26.216 134.308 25.928C133.722 25.6293 133.002 25.48 132.148 25.48C131.295 25.48 130.554 25.6347 129.924 25.944C129.306 26.2533 128.831 26.696 128.5 27.272C128.17 27.848 128.004 28.5307 128.004 29.32C128.004 30.0987 128.175 30.776 128.516 31.352C128.858 31.928 129.338 32.376 129.956 32.696C130.586 33.0053 131.327 33.16 132.18 33.16ZM138.008 30.328L137 31.928C137.331 32.184 137.688 32.4187 138.072 32.632C138.456 32.8347 138.872 32.9947 139.32 33.112C139.779 33.24 140.275 33.304 140.808 33.304C141.683 33.304 142.36 33.1067 142.84 32.712C143.331 32.3067 143.576 31.7093 143.576 30.92C143.576 30.4613 143.475 30.0933 143.272 29.816C143.08 29.5387 142.819 29.3093 142.488 29.128C142.168 28.9467 141.816 28.7867 141.432 28.648C141.069 28.5093 140.76 28.3973 140.504 28.312C140.259 28.216 140.067 28.1147 139.928 28.008C139.8 27.9013 139.736 27.768 139.736 27.608C139.736 27.4693 139.789 27.3573 139.896 27.272C140.013 27.1867 140.184 27.144 140.408 27.144C140.739 27.144 141.101 27.24 141.496 27.432C141.891 27.6133 142.243 27.848 142.552 28.136L143.416 26.568C143.128 26.3547 142.819 26.168 142.488 26.008C142.168 25.848 141.821 25.72 141.448 25.624C141.085 25.528 140.691 25.48 140.264 25.48C139.731 25.48 139.256 25.56 138.84 25.72C138.435 25.88 138.109 26.1147 137.864 26.424C137.629 26.7333 137.512 27.112 137.512 27.56C137.512 28.0293 137.613 28.4133 137.816 28.712C138.019 29.0107 138.275 29.2507 138.584 29.432C138.904 29.6027 139.24 29.752 139.592 29.88C139.987 29.9973 140.296 30.1093 140.52 30.216C140.755 30.3227 140.92 30.4347 141.016 30.552C141.112 30.6587 141.16 30.792 141.16 30.952C141.16 31.1227 141.101 31.2613 140.984 31.368C140.867 31.4747 140.685 31.528 140.44 31.528C140.269 31.528 140.067 31.496 139.832 31.432C139.597 31.3573 139.325 31.2347 139.016 31.064C138.717 30.8827 138.381 30.6373 138.008 30.328ZM157.238 25.64H154.758L152.406 31.528L153.654 31.544L151.27 25.64H148.614L151.798 32.408L150.006 36.52H152.438L157.238 25.64ZM165.962 27.288L169.018 31.96L172.09 27.288L172.762 33H175.61L173.802 21.24L169.018 28.072L164.25 21.24L162.442 33H165.29L165.962 27.288ZM176.66 29.32C176.66 30.088 176.842 30.76 177.204 31.336C177.567 31.912 178.068 32.36 178.708 32.68C179.348 33 180.068 33.16 180.868 33.16C181.668 33.16 182.383 33 183.012 32.68C183.652 32.36 184.154 31.912 184.516 31.336C184.89 30.76 185.076 30.088 185.076 29.32C185.076 28.5413 184.89 27.864 184.516 27.288C184.154 26.712 183.652 26.264 183.012 25.944C182.383 25.624 181.668 25.464 180.868 25.464C180.068 25.464 179.348 25.624 178.708 25.944C178.068 26.264 177.567 26.712 177.204 27.288C176.842 27.864 176.66 28.5413 176.66 29.32ZM179.14 29.32C179.14 28.936 179.22 28.6053 179.38 28.328C179.54 28.0507 179.748 27.8373 180.004 27.688C180.26 27.5387 180.548 27.464 180.868 27.464C181.178 27.464 181.46 27.5387 181.716 27.688C181.983 27.8373 182.191 28.0507 182.34 28.328C182.5 28.6053 182.58 28.936 182.58 29.32C182.58 29.704 182.5 30.0347 182.34 30.312C182.191 30.5787 181.983 30.7867 181.716 30.936C181.46 31.0853 181.178 31.16 180.868 31.16C180.548 31.16 180.26 31.0853 180.004 30.936C179.748 30.7867 179.54 30.5787 179.38 30.312C179.22 30.0347 179.14 29.704 179.14 29.32ZM192.114 20.52V33H194.53V20.52H192.114ZM186.098 29.32C186.098 30.1413 186.263 30.84 186.594 31.416C186.935 31.9813 187.373 32.4133 187.906 32.712C188.439 33.0107 189.005 33.16 189.602 33.16C190.221 33.16 190.765 33.0053 191.234 32.696C191.714 32.3867 192.093 31.944 192.37 31.368C192.647 30.792 192.786 30.1093 192.786 29.32C192.786 28.52 192.647 27.8373 192.37 27.272C192.093 26.696 191.714 26.2533 191.234 25.944C190.765 25.6347 190.221 25.48 189.602 25.48C189.005 25.48 188.439 25.6293 187.906 25.928C187.373 26.2267 186.935 26.6587 186.594 27.224C186.263 27.7893 186.098 28.488 186.098 29.32ZM188.642 29.32C188.642 28.936 188.722 28.6053 188.882 28.328C189.042 28.04 189.255 27.8213 189.522 27.672C189.789 27.512 190.082 27.432 190.402 27.432C190.679 27.432 190.946 27.5067 191.202 27.656C191.469 27.8053 191.687 28.024 191.858 28.312C192.029 28.5893 192.114 28.9253 192.114 29.32C192.114 29.7147 192.029 30.056 191.858 30.344C191.687 30.6213 191.469 30.8347 191.202 30.984C190.946 31.1333 190.679 31.208 190.402 31.208C190.082 31.208 189.789 31.1333 189.522 30.984C189.255 30.824 189.042 30.6053 188.882 30.328C188.722 30.04 188.642 29.704 188.642 29.32ZM200.149 33.16C201.088 33.16 201.882 32.9787 202.533 32.616C203.194 32.2533 203.717 31.7093 204.101 30.984L201.941 30.456C201.76 30.776 201.514 31.016 201.205 31.176C200.906 31.336 200.544 31.416 200.117 31.416C199.744 31.416 199.429 31.336 199.173 31.176C198.917 31.0053 198.725 30.76 198.597 30.44C198.469 30.12 198.405 29.736 198.405 29.288C198.416 28.7973 198.48 28.392 198.597 28.072C198.725 27.7413 198.912 27.496 199.157 27.336C199.402 27.176 199.706 27.096 200.069 27.096C200.357 27.096 200.608 27.16 200.821 27.288C201.034 27.416 201.2 27.5973 201.317 27.832C201.434 28.0667 201.493 28.344 201.493 28.664C201.493 28.7387 201.472 28.8347 201.429 28.952C201.397 29.0587 201.354 29.1493 201.301 29.224L201.877 28.488H197.333V29.832H204.053C204.074 29.7573 204.085 29.6667 204.085 29.56C204.085 29.4427 204.085 29.3253 204.085 29.208C204.085 28.4187 203.93 27.7467 203.621 27.192C203.312 26.6373 202.864 26.216 202.277 25.928C201.69 25.6293 200.97 25.48 200.117 25.48C199.264 25.48 198.522 25.6347 197.893 25.944C197.274 26.2533 196.8 26.696 196.469 27.272C196.138 27.848 195.973 28.5307 195.973 29.32C195.973 30.0987 196.144 30.776 196.485 31.352C196.826 31.928 197.306 32.376 197.925 32.696C198.554 33.0053 199.296 33.16 200.149 33.16ZM205.577 20.52V33H208.009V20.52H205.577ZM209.457 29.32C209.457 30.088 209.639 30.76 210.001 31.336C210.364 31.912 210.865 32.36 211.505 32.68C212.145 33 212.865 33.16 213.665 33.16C214.465 33.16 215.18 33 215.809 32.68C216.449 32.36 216.951 31.912 217.313 31.336C217.687 30.76 217.873 30.088 217.873 29.32C217.873 28.5413 217.687 27.864 217.313 27.288C216.951 26.712 216.449 26.264 215.809 25.944C215.18 25.624 214.465 25.464 213.665 25.464C212.865 25.464 212.145 25.624 211.505 25.944C210.865 26.264 210.364 26.712 210.001 27.288C209.639 27.864 209.457 28.5413 209.457 29.32ZM211.937 29.32C211.937 28.936 212.017 28.6053 212.177 28.328C212.337 28.0507 212.545 27.8373 212.801 27.688C213.057 27.5387 213.345 27.464 213.665 27.464C213.975 27.464 214.257 27.5387 214.513 27.688C214.78 27.8373 214.988 28.0507 215.137 28.328C215.297 28.6053 215.377 28.936 215.377 29.32C215.377 29.704 215.297 30.0347 215.137 30.312C214.988 30.5787 214.78 30.7867 214.513 30.936C214.257 31.0853 213.975 31.16 213.665 31.16C213.345 31.16 213.057 31.0853 212.801 30.936C212.545 30.7867 212.337 30.5787 212.177 30.312C212.017 30.0347 211.937 29.704 211.937 29.32ZM219.727 30.328L218.719 31.928C219.049 32.184 219.407 32.4187 219.791 32.632C220.175 32.8347 220.591 32.9947 221.039 33.112C221.497 33.24 221.993 33.304 222.527 33.304C223.401 33.304 224.079 33.1067 224.559 32.712C225.049 32.3067 225.295 31.7093 225.295 30.92C225.295 30.4613 225.193 30.0933 224.991 29.816C224.799 29.5387 224.537 29.3093 224.207 29.128C223.887 28.9467 223.535 28.7867 223.151 28.648C222.788 28.5093 222.479 28.3973 222.223 28.312C221.977 28.216 221.785 28.1147 221.647 28.008C221.519 27.9013 221.455 27.768 221.455 27.608C221.455 27.4693 221.508 27.3573 221.615 27.272C221.732 27.1867 221.903 27.144 222.127 27.144C222.457 27.144 222.82 27.24 223.215 27.432C223.609 27.6133 223.961 27.848 224.271 28.136L225.135 26.568C224.847 26.3547 224.537 26.168 224.207 26.008C223.887 25.848 223.54 25.72 223.167 25.624C222.804 25.528 222.409 25.48 221.983 25.48C221.449 25.48 220.975 25.56 220.559 25.72C220.153 25.88 219.828 26.1147 219.583 26.424C219.348 26.7333 219.231 27.112 219.231 27.56C219.231 28.0293 219.332 28.4133 219.535 28.712C219.737 29.0107 219.993 29.2507 220.303 29.432C220.623 29.6027 220.959 29.752 221.311 29.88C221.705 29.9973 222.015 30.1093 222.239 30.216C222.473 30.3227 222.639 30.4347 222.735 30.552C222.831 30.6587 222.879 30.792 222.879 30.952C222.879 31.1227 222.82 31.2613 222.703 31.368C222.585 31.4747 222.404 31.528 222.159 31.528C221.988 31.528 221.785 31.496 221.551 31.432C221.316 31.3573 221.044 31.2347 220.735 31.064C220.436 30.8827 220.1 30.6373 219.727 30.328ZM226.752 31.912C226.752 32.3173 226.896 32.664 227.184 32.952C227.472 33.24 227.829 33.384 228.256 33.384C228.704 33.384 229.066 33.24 229.344 32.952C229.621 32.664 229.76 32.3173 229.76 31.912C229.76 31.5067 229.621 31.16 229.344 30.872C229.066 30.584 228.704 30.44 228.256 30.44C227.829 30.44 227.472 30.584 227.184 30.872C226.896 31.16 226.752 31.5067 226.752 31.912Z" fill="black"/>
</g>
<defs>
<filter id="filter0_d_138_86" x="38" y="0" width="249" height="57" filterUnits="userSpaceOnUse" color-interpolation-filters="sRGB">
<feFlood flood-opacity="0" result="BackgroundImageFix"/>
<feColorMatrix in="SourceAlpha" type="matrix" values="0 0 0 0 0 0 0 0 0 0 0 0 0 0 0 0 0 0 127 0" result="hardAlpha"/>
<feOffset dy="4"/>
<feGaussianBlur stdDeviation="2"/>
<feComposite in2="hardAlpha" operator="out"/>
<feColorMatrix type="matrix" values="0 0 0 0 0 0 0 0 0 0 0 0 0 0 0 0 0 0 0.25 0"/>
<feBlend mode="normal" in2="BackgroundImageFix" result="effect1_dropShadow_138_86"/>
<feBlend mode="normal" in="SourceGraphic" in2="effect1_dropShadow_138_86" result="shape"/>
</filter>
</defs>
</svg>
