<svg width="326" height="57" viewBox="0 0 326 57" fill="none" xmlns="http://www.w3.org/2000/svg">
<g filter="url(#filter0_d_138_87)">
<rect x="42" width="241" height="49" rx="11" fill="#AA4646"/>
<path d="M125.018 21.8V29.32C125.018 30.024 125.13 30.6373 125.354 31.16C125.589 31.6827 125.909 32.1147 126.314 32.456C126.73 32.7867 127.21 33.0373 127.754 33.208C128.298 33.3787 128.885 33.464 129.514 33.464C130.143 33.464 130.73 33.3787 131.274 33.208C131.829 33.0373 132.309 32.7867 132.714 32.456C133.13 32.1147 133.45 31.6827 133.674 31.16C133.909 30.6373 134.026 30.024 134.026 29.32V21.8H131.322V29.128C131.322 29.6933 131.173 30.152 130.874 30.504C130.575 30.856 130.122 31.032 129.514 31.032C128.917 31.032 128.469 30.856 128.17 30.504C127.871 30.152 127.722 29.6933 127.722 29.128V21.8H125.018ZM138.477 20.52H136.061V33H138.477V20.52ZM144.493 29.32C144.493 28.488 144.322 27.7893 143.981 27.224C143.65 26.6587 143.218 26.2267 142.685 25.928C142.162 25.6293 141.597 25.48 140.989 25.48C140.381 25.48 139.837 25.6347 139.357 25.944C138.877 26.2533 138.498 26.696 138.221 27.272C137.943 27.8373 137.805 28.52 137.805 29.32C137.805 30.1093 137.943 30.792 138.221 31.368C138.498 31.944 138.877 32.3867 139.357 32.696C139.837 33.0053 140.381 33.16 140.989 33.16C141.597 33.16 142.162 33.0107 142.685 32.712C143.218 32.4133 143.65 31.9813 143.981 31.416C144.322 30.84 144.493 30.1413 144.493 29.32ZM141.949 29.32C141.949 29.704 141.869 30.04 141.709 30.328C141.549 30.6053 141.335 30.824 141.069 30.984C140.802 31.1333 140.509 31.208 140.189 31.208C139.911 31.208 139.639 31.1333 139.373 30.984C139.117 30.8347 138.903 30.6213 138.733 30.344C138.562 30.056 138.477 29.7147 138.477 29.32C138.477 28.9253 138.562 28.5893 138.733 28.312C138.903 28.024 139.117 27.8053 139.373 27.656C139.639 27.5067 139.911 27.432 140.189 27.432C140.509 27.432 140.802 27.512 141.069 27.672C141.335 27.8213 141.549 28.04 141.709 28.328C141.869 28.6053 141.949 28.936 141.949 29.32ZM145.808 22.872C145.808 23.256 145.946 23.5707 146.224 23.816C146.501 24.0613 146.832 24.184 147.216 24.184C147.61 24.184 147.941 24.0613 148.208 23.816C148.485 23.5707 148.624 23.256 148.624 22.872C148.624 22.488 148.485 22.1787 148.208 21.944C147.941 21.6987 147.61 21.576 147.216 21.576C146.832 21.576 146.501 21.6987 146.224 21.944C145.946 22.1787 145.808 22.488 145.808 22.872ZM146.048 25.64V33H148.384V25.64H146.048ZM152.406 29.32C152.406 28.9573 152.491 28.632 152.662 28.344C152.832 28.056 153.067 27.8267 153.366 27.656C153.675 27.4853 154.006 27.4 154.358 27.4C154.624 27.4 154.896 27.4427 155.174 27.528C155.451 27.6133 155.707 27.736 155.942 27.896C156.187 28.056 156.384 28.2533 156.534 28.488V26.12C156.278 25.9387 155.958 25.7893 155.574 25.672C155.19 25.544 154.72 25.48 154.166 25.48C153.355 25.48 152.624 25.64 151.974 25.96C151.334 26.28 150.827 26.728 150.454 27.304C150.091 27.8693 149.91 28.5413 149.91 29.32C149.91 30.088 150.091 30.76 150.454 31.336C150.827 31.912 151.334 32.36 151.974 32.68C152.624 33 153.355 33.16 154.166 33.16C154.72 33.16 155.19 33.1013 155.574 32.984C155.958 32.856 156.278 32.6907 156.534 32.488V30.136C156.384 30.3707 156.192 30.568 155.958 30.728C155.734 30.888 155.483 31.016 155.206 31.112C154.939 31.1973 154.656 31.24 154.358 31.24C154.006 31.24 153.675 31.16 153.366 31C153.067 30.84 152.832 30.6213 152.662 30.344C152.491 30.056 152.406 29.7147 152.406 29.32ZM160.152 30.696C160.152 30.5147 160.195 30.3653 160.28 30.248C160.365 30.12 160.493 30.024 160.664 29.96C160.835 29.896 161.064 29.864 161.352 29.864C161.725 29.864 162.077 29.9173 162.408 30.024C162.749 30.12 163.048 30.264 163.304 30.456V29.384C163.176 29.2453 162.984 29.112 162.728 28.984C162.472 28.856 162.163 28.7493 161.8 28.664C161.448 28.5787 161.048 28.536 160.6 28.536C159.683 28.536 158.973 28.744 158.472 29.16C157.971 29.5653 157.72 30.12 157.72 30.824C157.72 31.3253 157.837 31.752 158.072 32.104C158.317 32.456 158.637 32.7227 159.032 32.904C159.437 33.0747 159.875 33.16 160.344 33.16C160.813 33.16 161.251 33.08 161.656 32.92C162.061 32.7493 162.392 32.504 162.648 32.184C162.904 31.8533 163.032 31.4533 163.032 30.984L162.776 30.024C162.776 30.3653 162.701 30.6533 162.552 30.888C162.403 31.1227 162.211 31.2987 161.976 31.416C161.741 31.5333 161.485 31.592 161.208 31.592C161.016 31.592 160.84 31.56 160.68 31.496C160.52 31.4213 160.392 31.32 160.296 31.192C160.2 31.0533 160.152 30.888 160.152 30.696ZM159.08 27.896C159.187 27.832 159.357 27.752 159.592 27.656C159.827 27.5493 160.099 27.4587 160.408 27.384C160.728 27.3093 161.053 27.272 161.384 27.272C161.608 27.272 161.805 27.2933 161.976 27.336C162.157 27.3787 162.307 27.448 162.424 27.544C162.541 27.64 162.627 27.7573 162.68 27.896C162.744 28.024 162.776 28.1787 162.776 28.36V33H165.096V27.816C165.096 27.304 164.947 26.872 164.648 26.52C164.349 26.168 163.944 25.9013 163.432 25.72C162.92 25.528 162.339 25.432 161.688 25.432C160.995 25.432 160.355 25.5227 159.768 25.704C159.181 25.8853 158.68 26.0773 158.264 26.28L159.08 27.896ZM168.937 29.32C168.937 28.9573 169.022 28.632 169.193 28.344C169.364 28.056 169.598 27.8267 169.897 27.656C170.206 27.4853 170.537 27.4 170.889 27.4C171.156 27.4 171.428 27.4427 171.705 27.528C171.982 27.6133 172.238 27.736 172.473 27.896C172.718 28.056 172.916 28.2533 173.065 28.488V26.12C172.809 25.9387 172.489 25.7893 172.105 25.672C171.721 25.544 171.252 25.48 170.697 25.48C169.886 25.48 169.156 25.64 168.505 25.96C167.865 26.28 167.358 26.728 166.985 27.304C166.622 27.8693 166.441 28.5413 166.441 29.32C166.441 30.088 166.622 30.76 166.985 31.336C167.358 31.912 167.865 32.36 168.505 32.68C169.156 33 169.886 33.16 170.697 33.16C171.252 33.16 171.721 33.1013 172.105 32.984C172.489 32.856 172.809 32.6907 173.065 32.488V30.136C172.916 30.3707 172.724 30.568 172.489 30.728C172.265 30.888 172.014 31.016 171.737 31.112C171.47 31.1973 171.188 31.24 170.889 31.24C170.537 31.24 170.206 31.16 169.897 31C169.598 30.84 169.364 30.6213 169.193 30.344C169.022 30.056 168.937 29.7147 168.937 29.32ZM174.667 22.872C174.667 23.256 174.806 23.5707 175.083 23.816C175.361 24.0613 175.691 24.184 176.075 24.184C176.47 24.184 176.801 24.0613 177.067 23.816C177.345 23.5707 177.483 23.256 177.483 22.872C177.483 22.488 177.345 22.1787 177.067 21.944C176.801 21.6987 176.47 21.576 176.075 21.576C175.691 21.576 175.361 21.6987 175.083 21.944C174.806 22.1787 174.667 22.488 174.667 22.872ZM174.907 25.64V33H177.243V25.64H174.907ZM178.801 29.32C178.801 30.088 178.982 30.76 179.345 31.336C179.708 31.912 180.209 32.36 180.849 32.68C181.489 33 182.209 33.16 183.009 33.16C183.809 33.16 184.524 33 185.153 32.68C185.793 32.36 186.294 31.912 186.657 31.336C187.03 30.76 187.217 30.088 187.217 29.32C187.217 28.5413 187.03 27.864 186.657 27.288C186.294 26.712 185.793 26.264 185.153 25.944C184.524 25.624 183.809 25.464 183.009 25.464C182.209 25.464 181.489 25.624 180.849 25.944C180.209 26.264 179.708 26.712 179.345 27.288C178.982 27.864 178.801 28.5413 178.801 29.32ZM181.281 29.32C181.281 28.936 181.361 28.6053 181.521 28.328C181.681 28.0507 181.889 27.8373 182.145 27.688C182.401 27.5387 182.689 27.464 183.009 27.464C183.318 27.464 183.601 27.5387 183.857 27.688C184.124 27.8373 184.332 28.0507 184.481 28.328C184.641 28.6053 184.721 28.936 184.721 29.32C184.721 29.704 184.641 30.0347 184.481 30.312C184.332 30.5787 184.124 30.7867 183.857 30.936C183.601 31.0853 183.318 31.16 183.009 31.16C182.689 31.16 182.401 31.0853 182.145 30.936C181.889 30.7867 181.681 30.5787 181.521 30.312C181.361 30.0347 181.281 29.704 181.281 29.32ZM185.569 21.992L183.713 21.144L181.313 23.704L182.689 24.392L185.569 21.992ZM193.455 28.52V33H195.967V28.264C195.967 27.3787 195.759 26.6907 195.343 26.2C194.927 25.7093 194.26 25.464 193.343 25.464C192.799 25.464 192.34 25.576 191.967 25.8C191.604 26.024 191.316 26.3387 191.103 26.744V25.64H188.671V33H191.103V28.52C191.103 28.232 191.156 27.9867 191.263 27.784C191.369 27.5813 191.519 27.4267 191.711 27.32C191.903 27.2133 192.127 27.16 192.383 27.16C192.767 27.16 193.039 27.2773 193.199 27.512C193.369 27.7467 193.455 28.0827 193.455 28.52ZM198.002 31.912C198.002 32.3173 198.146 32.664 198.434 32.952C198.722 33.24 199.079 33.384 199.506 33.384C199.954 33.384 200.316 33.24 200.594 32.952C200.871 32.664 201.01 32.3173 201.01 31.912C201.01 31.5067 200.871 31.16 200.594 30.872C200.316 30.584 199.954 30.44 199.506 30.44C199.079 30.44 198.722 30.584 198.434 30.872C198.146 31.16 198.002 31.5067 198.002 31.912Z" fill="black"/>
</g>
<defs>
<filter id="filter0_d_138_87" x="38" y="0" width="249" height="57" filterUnits="userSpaceOnUse" color-interpolation-filters="sRGB">
<feFlood flood-opacity="0" result="BackgroundImageFix"/>
<feColorMatrix in="SourceAlpha" type="matrix" values="0 0 0 0 0 0 0 0 0 0 0 0 0 0 0 0 0 0 127 0" result="hardAlpha"/>
<feOffset dy="4"/>
<feGaussianBlur stdDeviation="2"/>
<feComposite in2="hardAlpha" operator="out"/>
<feColorMatrix type="matrix" values="0 0 0 0 0 0 0 0 0 0 0 0 0 0 0 0 0 0 0.25 0"/>
<feBlend mode="normal" in2="BackgroundImageFix" result="effect1_dropShadow_138_87"/>
<feBlend mode="normal" in="SourceGraphic" in2="effect1_dropShadow_138_87" result="shape"/>
</filter>
</defs>
</svg>
