<svg width="186" height="84" viewBox="0 0 186 84" fill="none" xmlns="http://www.w3.org/2000/svg">
<path d="M14.8039 83.536C5.33187 83.536 0.595874 79.632 0.595874 71.824C0.595874 61.264 10.7719 51.824 31.1239 43.504C30.3559 42.224 29.9719 41.104 29.9719 40.144C29.9719 32.72 34.5159 25.616 43.6039 18.832C50.8999 13.392 58.8359 9.36 67.4119 6.736C67.6039 5.584 68.0839 5.008 68.8519 5.008C70.0679 5.008 70.9959 5.712 71.6359 7.12C76.6279 7.568 79.1239 9.168 79.1239 11.92C79.1239 12.752 78.7079 13.776 77.8759 14.992C77.0439 16.208 76.1799 16.816 75.2839 16.816C74.8359 16.816 74.6119 16.592 74.6119 16.144C74.6119 16.016 74.8359 15.504 75.2839 14.608C75.7319 13.712 75.9559 12.88 75.9559 12.112C75.9559 10.32 74.8359 9.424 72.5959 9.424C72.2119 9.424 71.9239 9.456 71.7319 9.52C71.6679 10.352 71.5079 11.408 71.2519 12.688C71.0599 13.904 70.7079 15.888 70.1959 18.64C69.8119 20.624 69.3639 22.8 68.8519 25.168C68.4039 27.472 67.8599 30 67.2199 32.752C67.6039 32.688 67.9879 32.656 68.3719 32.656C68.7559 32.656 69.1079 32.656 69.4279 32.656C72.6919 32.656 74.3239 33.2 74.3239 34.288C74.3239 34.928 73.8119 35.248 72.7879 35.248C72.6599 35.248 72.4679 35.248 72.2119 35.248C71.9559 35.248 71.6679 35.216 71.3479 35.152C71.0279 35.088 70.7079 35.056 70.3879 35.056C70.1319 35.056 69.9079 35.056 69.7159 35.056C69.0759 35.056 68.4999 35.088 67.9879 35.152C67.4759 35.152 66.9959 35.184 66.5479 35.248C61.1719 56.176 50.4199 70.736 34.2919 78.928C28.2759 82 21.7799 83.536 14.8039 83.536ZM34.2919 42.256C36.9799 41.232 39.7959 40.24 42.7399 39.28C45.6839 38.256 48.7559 37.296 51.9559 36.4C53.8119 34.672 55.5399 32.816 57.1399 30.832C58.8039 28.784 60.3719 26.512 61.8439 24.016C64.9799 18.832 66.8359 13.904 67.4119 9.232C56.7879 12.24 48.3399 17.232 42.0679 24.208C40.1479 26.32 38.3879 28.816 36.7879 31.696C34.8679 35.024 33.9079 37.904 33.9079 40.336C33.9079 41.104 34.0359 41.744 34.2919 42.256ZM56.4679 35.152C57.4919 34.896 58.5159 34.64 59.5399 34.384C60.6279 34.128 61.7159 33.872 62.8039 33.616L64.7239 23.824C63.5079 25.872 62.1959 27.856 60.7879 29.776C59.4439 31.632 58.0039 33.424 56.4679 35.152ZM17.3959 80.368C23.2199 80.368 28.6279 79.28 33.6199 77.104C47.5079 71.152 57.0119 57.488 62.1319 36.112C60.4039 36.56 58.8039 37.008 57.3319 37.456C55.8599 37.84 54.5159 38.192 53.2999 38.512C47.4759 44.272 42.0679 47.152 37.0759 47.152C35.2199 47.152 33.7159 46.576 32.5639 45.424C13.8119 52.912 4.43587 61.296 4.43587 70.576C4.43587 77.104 8.75587 80.368 17.3959 80.368ZM37.4599 43.984C40.4039 43.984 43.6999 42.736 47.3479 40.24C45.3639 40.816 43.4439 41.424 41.5879 42.064C39.7959 42.64 38.0679 43.248 36.4039 43.888C36.5959 43.952 36.9479 43.984 37.4599 43.984ZM79.1096 33.52C77.5736 33.52 76.8056 32.752 76.8056 31.216C76.8056 30.448 77.0936 29.776 77.6696 29.2C78.3096 28.56 79.0456 28.24 79.8776 28.24C81.4136 28.24 82.1816 29.008 82.1816 30.544C82.1816 31.312 81.8936 31.984 81.3176 32.56C80.6776 33.2 79.9416 33.52 79.1096 33.52ZM73.5416 59.632C70.0216 59.632 68.2616 57.744 68.2616 53.968C68.2616 52.176 68.9016 49.552 70.1816 46.096C70.7576 44.496 71.3336 43.152 71.9096 42.064C72.5496 40.912 73.1896 39.856 73.8296 38.896C74.2136 38.32 74.6616 38.032 75.1736 38.032C75.6856 38.032 76.1976 38.288 76.7096 38.8C77.0296 39.12 77.1896 39.536 77.1896 40.048C77.1896 40.496 77.0616 40.944 76.8056 41.392C75.3976 43.568 74.2456 45.776 73.3496 48.016C72.4536 50.192 72.0056 52.144 72.0056 53.872C72.0056 56.176 72.8376 57.328 74.5016 57.328C75.3976 57.328 76.4216 57.104 77.5736 56.656C78.7256 56.144 79.8776 55.376 81.0296 54.352C81.7976 53.648 82.5976 52.848 83.4296 51.952C84.3256 51.056 85.2216 50 86.1176 48.784C87.7816 46.736 88.6136 45.712 88.6136 45.712C88.9336 45.712 89.0936 45.968 89.0936 46.48C89.0936 46.992 88.8696 47.504 88.4216 48.016C82.5976 55.76 77.6376 59.632 73.5416 59.632ZM94.1539 59.248C90.6979 59.248 88.5539 57.168 87.7219 53.008C87.6579 52.432 87.5619 51.856 87.4339 51.28C87.3699 50.704 87.3379 50.128 87.3379 49.552C87.3379 46.672 87.8499 43.728 88.8739 40.72C89.9619 37.712 91.2739 34.768 92.8099 31.888C94.3459 29.008 95.7539 26.352 97.0339 23.92C98.2499 21.68 99.5939 19.472 101.066 17.296C102.602 15.056 104.106 13.008 105.578 11.152C107.05 9.296 108.298 7.792 109.322 6.64C110.986 4.784 112.586 3.472 114.122 2.704C115.658 1.872 117.034 1.456 118.25 1.456C119.082 1.456 119.818 1.872 120.458 2.704C121.162 3.6 121.514 4.464 121.514 5.296C121.514 9.712 117.386 17.104 109.13 27.472C105.866 31.568 102.73 35.28 99.7219 38.608C96.7139 41.872 93.8019 44.816 90.9859 47.44C90.9219 47.952 90.8579 48.496 90.7939 49.072C90.7939 49.584 90.7939 50.096 90.7939 50.608C90.7939 52.784 91.1459 54.448 91.8499 55.6C92.5539 56.688 93.8019 57.232 95.5939 57.232C97.3859 57.232 99.4659 56.208 101.834 54.16C104.266 52.048 106.762 49.104 109.322 45.328C109.514 45.008 109.738 44.816 109.994 44.752C110.378 44.752 110.57 44.976 110.57 45.424C110.57 45.744 110.506 46 110.378 46.192C109.482 47.728 108.458 49.2 107.306 50.608C106.218 52.016 104.97 53.36 103.562 54.64C101.962 56.048 100.362 57.168 98.7619 58C97.2259 58.832 95.6899 59.248 94.1539 59.248ZM91.1779 45.328C92.9699 43.792 95.0819 41.584 97.5139 38.704C100.01 35.76 102.634 32.336 105.386 28.432C111.594 19.856 115.306 13.648 116.522 9.808C117.098 7.952 117.386 6.576 117.386 5.68C117.386 4.464 116.97 3.856 116.138 3.856C114.282 3.856 112.01 5.648 109.322 9.232C107.786 11.28 105.994 13.904 103.946 17.104C101.898 20.24 99.9139 23.664 97.9939 27.376C95.7539 31.664 94.1539 35.216 93.1939 38.032C92.2979 40.848 91.6259 43.28 91.1779 45.328ZM108.153 58C106.169 58 105.177 56.912 105.177 54.736C105.177 50.768 107.193 46.192 111.225 41.008C113.337 38.256 115.417 36.208 117.465 34.864C119.513 33.456 121.529 32.848 123.513 33.04C124.601 29.328 125.721 25.872 126.873 22.672C128.025 19.472 129.273 16.496 130.617 13.744C134.969 4.784 139.225 0.303999 143.385 0.303999C146.073 0.303999 147.417 1.84 147.417 4.912C147.417 11.632 139.769 23.984 124.473 41.968C124.089 44.144 123.897 46.256 123.897 48.304C123.897 53.168 124.921 55.6 126.969 55.6C128.313 55.6 130.265 54.064 132.825 50.992C135.385 47.856 136.793 46.288 137.049 46.288C137.241 46.288 137.337 46.448 137.337 46.768C137.337 47.152 137.177 47.6 136.857 48.112C132.889 54.576 128.985 57.808 125.145 57.808C121.817 57.808 120.153 55.28 120.153 50.224C120.153 48.624 120.345 46.768 120.729 44.656C115.737 53.552 111.545 58 108.153 58ZM125.049 39.184C137.465 22.352 143.673 10.992 143.673 5.104C143.673 3.696 143.097 2.992 141.945 2.992C138.745 2.992 135.193 8.208 131.289 18.64C128.665 25.552 126.585 32.4 125.049 39.184ZM109.785 55.024C111.257 55.024 113.081 53.584 115.257 50.704C115.705 50.192 116.249 49.392 116.889 48.304C117.593 47.152 118.425 45.744 119.385 44.08C120.473 42.224 121.241 40.752 121.689 39.664C122.201 38.576 122.457 37.872 122.457 37.552C122.457 37.424 122.425 37.36 122.361 37.36C122.361 37.36 122.329 37.328 122.265 37.264C122.201 37.072 121.849 36.976 121.209 36.976C118.649 36.976 115.865 38.96 112.857 42.928C109.849 46.896 108.345 50.224 108.345 52.912C108.345 54.32 108.825 55.024 109.785 55.024ZM142.049 58.576C139.937 58.576 138.081 57.968 136.481 56.752C134.881 55.536 134.081 53.488 134.081 50.608C134.081 48.88 134.465 47.024 135.233 45.04C136.001 42.992 137.025 41.072 138.305 39.28C139.649 37.488 141.121 36.016 142.721 34.864C144.321 33.712 145.953 33.136 147.617 33.136C148.257 33.136 148.801 33.36 149.249 33.808C149.761 34.256 150.017 34.928 150.017 35.824C150.017 37.808 148.513 40.208 145.505 43.024C144.289 44.176 143.009 45.2 141.665 46.096C140.385 46.992 139.201 47.632 138.113 48.016C137.857 48.848 137.729 49.808 137.729 50.896C137.729 52.368 138.081 53.712 138.785 54.928C139.489 56.144 140.609 56.752 142.145 56.752C144.065 56.752 145.825 56.208 147.425 55.12C149.025 54.032 150.497 52.72 151.841 51.184C153.185 49.584 154.369 48.112 155.393 46.768C155.841 46.128 156.289 45.808 156.737 45.808C156.993 45.808 157.121 45.936 157.121 46.192C157.121 46.32 157.089 46.48 157.025 46.672C156.961 46.8 156.897 46.928 156.833 47.056C155.745 48.592 154.497 50.256 153.089 52.048C151.681 53.84 150.081 55.376 148.289 56.656C146.497 57.936 144.417 58.576 142.049 58.576ZM138.785 46.096C140.449 45.392 142.177 44.144 143.969 42.352C146.081 40.304 147.137 38.512 147.137 36.976C147.137 36.208 146.753 35.824 145.985 35.824C144.961 35.824 143.553 37.296 141.761 40.24C140.161 42.672 139.169 44.624 138.785 46.096ZM170.004 59.536C167.828 59.536 166.292 58.96 165.396 57.808C164.564 56.656 164.148 55.184 164.148 53.392C164.148 51.92 164.372 50.384 164.82 48.784C165.332 47.12 165.94 45.584 166.644 44.176C167.348 42.768 167.956 41.648 168.468 40.816C168.276 40.88 168.084 40.944 167.892 41.008C167.7 41.008 167.476 41.008 167.22 41.008C166.324 41.008 165.332 40.688 164.244 40.048C163.092 39.28 162.516 38.48 162.516 37.648C162.132 38.544 161.588 39.568 160.884 40.72C160.244 41.872 159.476 43.12 158.58 44.464C156.212 48.176 154.644 50.032 153.876 50.032C153.62 50.032 153.492 49.904 153.492 49.648C153.492 49.392 153.684 49.008 154.068 48.496C155.284 46.832 156.5 44.912 157.716 42.736C158.996 40.56 160.276 38.128 161.556 35.44C161.492 35.12 161.428 34.8 161.364 34.48C161.364 34.16 161.364 33.776 161.364 33.328C161.364 31.856 161.652 30.16 162.228 28.24C162.932 25.808 163.796 24.592 164.82 24.592C165.46 24.592 166.068 25.168 166.644 26.32C166.836 26.768 166.996 27.216 167.124 27.664C167.252 28.048 167.316 28.464 167.316 28.912C167.316 30.448 166.004 32.784 163.38 35.92C163.956 37.904 165.076 38.896 166.74 38.896C167.956 38.896 169.076 38.288 170.1 37.072C171.188 35.792 171.956 35.152 172.404 35.152C172.98 35.152 173.492 35.376 173.94 35.824C174.388 36.272 174.612 36.848 174.612 37.552C174.612 37.488 174.196 38.064 173.364 39.28C172.596 40.496 171.7 42.192 170.676 44.368C169.652 46.544 168.916 48.4 168.468 49.936C168.084 51.472 167.892 52.848 167.892 54.064C167.892 56.304 168.948 57.424 171.06 57.424C173.108 57.424 175.7 55.856 178.836 52.72C179.86 51.632 181.044 50.256 182.388 48.592C184.052 46.544 184.884 45.52 184.884 45.52C185.14 45.52 185.268 45.712 185.268 46.096C185.268 46.608 185.076 47.152 184.692 47.728C183.796 49.136 182.804 50.544 181.716 51.952C180.692 53.296 179.732 54.384 178.836 55.216C175.892 58.096 172.948 59.536 170.004 59.536Z" fill="#7280FF"/>
</svg>
