<svg width="199" height="67" viewBox="0 0 199 67" fill="none" xmlns="http://www.w3.org/2000/svg">
<path d="M17.2885 66.736C12.9365 66.736 9.1605 65.68 5.9605 63.568C2.3765 61.136 0.5845 57.808 0.5845 53.584C0.5845 45.712 7.0805 39.952 20.0725 36.304C24.4245 35.024 29.0325 34.096 33.8965 33.52C38.8245 32.944 43.9445 32.656 49.2565 32.656C50.4085 32.656 51.4965 32.688 52.5205 32.752C53.5445 32.752 54.4725 32.784 55.3045 32.848C58.6325 24.656 60.2965 18.544 60.2965 14.512C60.2965 12.016 59.4965 10.768 57.8965 10.768C57.0645 10.768 56.0085 11.12 54.7285 11.824C53.4485 12.528 52.7445 12.88 52.6165 12.88C52.2325 12.88 52.0405 12.592 52.0405 12.016C52.0405 11.184 53.0965 10.352 55.2085 9.52C57.1285 8.752 58.6645 8.368 59.8165 8.368C62.7605 8.368 64.2325 10.448 64.2325 14.608C64.2325 19.024 62.6965 25.232 59.6245 33.232C65.3845 34 69.7365 34.896 72.6805 35.92L75.7525 29.008C78.0565 23.824 80.2325 19.472 82.2805 15.952C84.3925 12.368 86.2805 9.584 87.9445 7.6C88.8405 6.64 90.3765 6.16 92.5525 6.16C93.3845 6.16 93.8005 6.32 93.8005 6.64C93.8005 6.704 93.7365 6.864 93.6085 7.12C85.6725 17.744 79.6245 27.728 75.4645 37.072C79.5605 39.056 81.6085 41.168 81.6085 43.408C81.6085 43.856 81.4485 44.4 81.1285 45.04C80.7445 45.616 80.3285 45.904 79.8805 45.904C79.1125 45.904 78.7285 45.52 78.7285 44.752C78.7285 44.56 78.8245 44.336 79.0165 44.08C79.2085 43.76 79.3045 43.504 79.3045 43.312C79.3045 42.032 77.7045 40.656 74.5045 39.184C71.0485 47.312 69.3205 53.328 69.3205 57.232C69.3205 59.536 69.9925 60.688 71.3365 60.688C71.8485 60.688 72.6485 60.336 73.7365 59.632C74.8885 58.864 75.4645 58.48 75.4645 58.48C76.0405 58.48 76.3285 58.768 76.3285 59.344C76.3285 60.048 75.6885 60.752 74.4085 61.456C73.0645 62.224 71.9765 62.608 71.1445 62.608C68.2005 62.608 66.7285 60.656 66.7285 56.752C66.7285 52.784 68.4245 46.576 71.8165 38.128C68.3605 37.04 63.9125 36.208 58.4725 35.632C56.2965 39.728 53.8325 43.408 51.0805 46.672C48.3285 49.936 45.0645 53.136 41.2885 56.272C36.8085 59.984 32.5845 62.64 28.6165 64.24C24.6485 65.904 20.8725 66.736 17.2885 66.736ZM17.2885 64.432C24.2005 64.432 31.4325 61.136 38.9845 54.544C45.4485 48.848 50.4725 42.448 54.0565 35.344C53.3525 35.28 52.5525 35.248 51.6565 35.248C50.8245 35.184 49.9605 35.152 49.0645 35.152C39.4005 35.152 30.4405 36.304 22.1845 38.608C10.0245 41.936 3.9445 47.152 3.9445 54.256C3.9445 57.648 5.4165 60.24 8.3605 62.032C10.7925 63.632 13.7685 64.432 17.2885 64.432ZM90.877 58.576C88.765 58.576 86.909 57.968 85.309 56.752C83.709 55.536 82.909 53.488 82.909 50.608C82.909 48.88 83.293 47.024 84.061 45.04C84.829 42.992 85.853 41.072 87.133 39.28C88.477 37.488 89.949 36.016 91.549 34.864C93.149 33.712 94.781 33.136 96.445 33.136C97.085 33.136 97.629 33.36 98.077 33.808C98.589 34.256 98.845 34.928 98.845 35.824C98.845 37.808 97.341 40.208 94.333 43.024C93.117 44.176 91.837 45.2 90.493 46.096C89.213 46.992 88.029 47.632 86.941 48.016C86.685 48.848 86.557 49.808 86.557 50.896C86.557 52.368 86.909 53.712 87.613 54.928C88.317 56.144 89.437 56.752 90.973 56.752C92.893 56.752 94.653 56.208 96.253 55.12C97.853 54.032 99.325 52.72 100.669 51.184C102.013 49.584 103.197 48.112 104.221 46.768C104.669 46.128 105.117 45.808 105.565 45.808C105.821 45.808 105.949 45.936 105.949 46.192C105.949 46.32 105.917 46.48 105.853 46.672C105.789 46.8 105.725 46.928 105.661 47.056C104.573 48.592 103.325 50.256 101.917 52.048C100.509 53.84 98.909 55.376 97.117 56.656C95.325 57.936 93.245 58.576 90.877 58.576ZM87.613 46.096C89.277 45.392 91.005 44.144 92.797 42.352C94.909 40.304 95.965 38.512 95.965 36.976C95.965 36.208 95.581 35.824 94.813 35.824C93.789 35.824 92.381 37.296 90.589 40.24C88.989 42.672 87.997 44.624 87.613 46.096ZM112.688 33.52C111.152 33.52 110.384 32.752 110.384 31.216C110.384 30.448 110.672 29.776 111.248 29.2C111.888 28.56 112.624 28.24 113.456 28.24C114.992 28.24 115.76 29.008 115.76 30.544C115.76 31.312 115.472 31.984 114.896 32.56C114.256 33.2 113.52 33.52 112.688 33.52ZM107.12 59.632C103.6 59.632 101.84 57.744 101.84 53.968C101.84 52.176 102.48 49.552 103.76 46.096C104.336 44.496 104.912 43.152 105.488 42.064C106.128 40.912 106.768 39.856 107.408 38.896C107.792 38.32 108.24 38.032 108.752 38.032C109.264 38.032 109.776 38.288 110.288 38.8C110.608 39.12 110.768 39.536 110.768 40.048C110.768 40.496 110.64 40.944 110.384 41.392C108.976 43.568 107.824 45.776 106.928 48.016C106.032 50.192 105.584 52.144 105.584 53.872C105.584 56.176 106.416 57.328 108.08 57.328C108.976 57.328 110 57.104 111.152 56.656C112.304 56.144 113.456 55.376 114.608 54.352C115.376 53.648 116.176 52.848 117.008 51.952C117.904 51.056 118.8 50 119.696 48.784C121.36 46.736 122.192 45.712 122.192 45.712C122.512 45.712 122.672 45.968 122.672 46.48C122.672 46.992 122.448 47.504 122 48.016C116.176 55.76 111.216 59.632 107.12 59.632ZM121.012 58C119.028 58 118.036 56.912 118.036 54.736C118.036 50.768 120.052 46.192 124.084 41.008C126.196 38.256 128.276 36.208 130.324 34.864C132.372 33.456 134.388 32.848 136.372 33.04C137.46 29.328 138.58 25.872 139.732 22.672C140.884 19.472 142.132 16.496 143.476 13.744C147.828 4.784 152.084 0.303999 156.244 0.303999C158.932 0.303999 160.276 1.84 160.276 4.912C160.276 11.632 152.628 23.984 137.332 41.968C136.948 44.144 136.756 46.256 136.756 48.304C136.756 53.168 137.78 55.6 139.828 55.6C141.172 55.6 143.124 54.064 145.684 50.992C148.244 47.856 149.652 46.288 149.908 46.288C150.1 46.288 150.196 46.448 150.196 46.768C150.196 47.152 150.036 47.6 149.716 48.112C145.748 54.576 141.844 57.808 138.004 57.808C134.676 57.808 133.012 55.28 133.012 50.224C133.012 48.624 133.204 46.768 133.588 44.656C128.596 53.552 124.404 58 121.012 58ZM137.908 39.184C150.324 22.352 156.532 10.992 156.532 5.104C156.532 3.696 155.956 2.992 154.804 2.992C151.604 2.992 148.052 8.208 144.148 18.64C141.524 25.552 139.444 32.4 137.908 39.184ZM122.644 55.024C124.116 55.024 125.94 53.584 128.116 50.704C128.564 50.192 129.108 49.392 129.748 48.304C130.452 47.152 131.284 45.744 132.244 44.08C133.332 42.224 134.1 40.752 134.548 39.664C135.06 38.576 135.316 37.872 135.316 37.552C135.316 37.424 135.284 37.36 135.22 37.36C135.22 37.36 135.188 37.328 135.124 37.264C135.06 37.072 134.708 36.976 134.068 36.976C131.508 36.976 128.724 38.96 125.716 42.928C122.708 46.896 121.204 50.224 121.204 52.912C121.204 54.32 121.684 55.024 122.644 55.024ZM154.908 58.576C152.796 58.576 150.94 57.968 149.34 56.752C147.74 55.536 146.94 53.488 146.94 50.608C146.94 48.88 147.324 47.024 148.092 45.04C148.86 42.992 149.884 41.072 151.164 39.28C152.508 37.488 153.98 36.016 155.58 34.864C157.18 33.712 158.812 33.136 160.476 33.136C161.116 33.136 161.66 33.36 162.108 33.808C162.62 34.256 162.876 34.928 162.876 35.824C162.876 37.808 161.372 40.208 158.364 43.024C157.148 44.176 155.868 45.2 154.524 46.096C153.244 46.992 152.06 47.632 150.972 48.016C150.716 48.848 150.588 49.808 150.588 50.896C150.588 52.368 150.94 53.712 151.644 54.928C152.348 56.144 153.468 56.752 155.004 56.752C156.924 56.752 158.684 56.208 160.284 55.12C161.884 54.032 163.356 52.72 164.7 51.184C166.044 49.584 167.228 48.112 168.252 46.768C168.7 46.128 169.148 45.808 169.596 45.808C169.852 45.808 169.98 45.936 169.98 46.192C169.98 46.32 169.948 46.48 169.884 46.672C169.82 46.8 169.756 46.928 169.692 47.056C168.604 48.592 167.356 50.256 165.948 52.048C164.54 53.84 162.94 55.376 161.148 56.656C159.356 57.936 157.276 58.576 154.908 58.576ZM151.644 46.096C153.308 45.392 155.036 44.144 156.828 42.352C158.94 40.304 159.996 38.512 159.996 36.976C159.996 36.208 159.612 35.824 158.844 35.824C157.82 35.824 156.412 37.296 154.62 40.24C153.02 42.672 152.028 44.624 151.644 46.096ZM182.863 59.536C180.687 59.536 179.151 58.96 178.255 57.808C177.423 56.656 177.007 55.184 177.007 53.392C177.007 51.92 177.231 50.384 177.679 48.784C178.191 47.12 178.799 45.584 179.503 44.176C180.207 42.768 180.815 41.648 181.327 40.816C181.135 40.88 180.943 40.944 180.751 41.008C180.559 41.008 180.335 41.008 180.079 41.008C179.183 41.008 178.191 40.688 177.103 40.048C175.951 39.28 175.375 38.48 175.375 37.648C174.991 38.544 174.447 39.568 173.743 40.72C173.103 41.872 172.335 43.12 171.439 44.464C169.071 48.176 167.503 50.032 166.735 50.032C166.479 50.032 166.351 49.904 166.351 49.648C166.351 49.392 166.543 49.008 166.927 48.496C168.143 46.832 169.359 44.912 170.575 42.736C171.855 40.56 173.135 38.128 174.415 35.44C174.351 35.12 174.287 34.8 174.223 34.48C174.223 34.16 174.223 33.776 174.223 33.328C174.223 31.856 174.511 30.16 175.087 28.24C175.791 25.808 176.655 24.592 177.679 24.592C178.319 24.592 178.927 25.168 179.503 26.32C179.695 26.768 179.855 27.216 179.983 27.664C180.111 28.048 180.175 28.464 180.175 28.912C180.175 30.448 178.863 32.784 176.239 35.92C176.815 37.904 177.935 38.896 179.599 38.896C180.815 38.896 181.935 38.288 182.959 37.072C184.047 35.792 184.815 35.152 185.263 35.152C185.839 35.152 186.351 35.376 186.799 35.824C187.247 36.272 187.471 36.848 187.471 37.552C187.471 37.488 187.055 38.064 186.223 39.28C185.455 40.496 184.559 42.192 183.535 44.368C182.511 46.544 181.775 48.4 181.327 49.936C180.943 51.472 180.751 52.848 180.751 54.064C180.751 56.304 181.807 57.424 183.919 57.424C185.967 57.424 188.559 55.856 191.695 52.72C192.719 51.632 193.903 50.256 195.247 48.592C196.911 46.544 197.743 45.52 197.743 45.52C197.999 45.52 198.127 45.712 198.127 46.096C198.127 46.608 197.935 47.152 197.551 47.728C196.655 49.136 195.663 50.544 194.575 51.952C193.551 53.296 192.591 54.384 191.695 55.216C188.751 58.096 185.807 59.536 182.863 59.536Z" fill="#7280FF"/>
</svg>
