<svg width="326" height="57" viewBox="0 0 326 57" fill="none" xmlns="http://www.w3.org/2000/svg">
<g filter="url(#filter0_d_138_87)">
<rect x="42" width="241" height="49" rx="11" fill="#FF6060"/>
<path d="M111.449 34.336C112.131 33.7173 112.665 32.9387 113.049 32C113.454 31.0613 113.657 29.984 113.657 28.768V14.848H116.121V13.6H109.689V14.848H112.345V28.672C112.345 29.696 112.185 30.6027 111.865 31.392C111.545 32.16 111.107 32.8107 110.553 33.344C109.998 33.8987 109.337 34.3147 108.569 34.592C107.801 34.8693 106.979 35.008 106.105 35.008C105.187 35.008 104.345 34.8693 103.577 34.592C102.809 34.3147 102.158 33.8987 101.625 33.344C101.07 32.8107 100.633 32.16 100.313 31.392C100.014 30.6027 99.8648 29.696 99.8648 28.672V14.848H102.521V13.6H96.0888V14.848H98.5528V28.768C98.5528 29.984 98.7448 31.0613 99.1288 32C99.5128 32.9387 100.035 33.7173 100.697 34.336C101.379 34.976 102.179 35.456 103.097 35.776C104.014 36.096 105.017 36.256 106.105 36.256C107.171 36.256 108.163 36.096 109.081 35.776C109.998 35.456 110.787 34.976 111.449 34.336ZM118.37 36H121.922V34.688C121.922 34.432 121.922 34.1973 121.922 33.984C121.922 33.7493 121.922 33.4933 121.922 33.216C122.05 33.6 122.274 33.9733 122.594 34.336C122.914 34.6773 123.298 34.9867 123.746 35.264C124.173 35.5627 124.663 35.7973 125.218 35.968C125.794 36.1387 126.402 36.224 127.042 36.224C127.917 36.224 128.738 36.064 129.506 35.744C130.274 35.424 130.946 34.976 131.522 34.4C132.077 33.824 132.514 33.1627 132.834 32.416C133.175 31.6693 133.346 30.8587 133.346 29.984C133.346 29.1307 133.175 28.32 132.834 27.552C132.514 26.784 132.077 26.1227 131.522 25.568C130.946 25.0133 130.274 24.576 129.506 24.256C128.738 23.9147 127.917 23.744 127.042 23.744C126.423 23.744 125.837 23.8293 125.282 24C124.727 24.1707 124.226 24.3947 123.778 24.672C123.33 24.9707 122.957 25.3013 122.658 25.664C122.359 26.0053 122.146 26.3573 122.018 26.72C122.039 26.4 122.05 26.1547 122.05 25.984C122.05 25.792 122.05 25.536 122.05 25.216V12H118.498V13.248H120.738V34.752H118.37V36ZM127.042 25.024C127.725 25.024 128.365 25.152 128.962 25.408C129.559 25.6427 130.082 25.9733 130.53 26.4C130.999 26.848 131.362 27.3813 131.618 28C131.874 28.6187 132.002 29.28 132.002 29.984C132.002 30.688 131.874 31.3387 131.618 31.936C131.362 32.5333 131.021 33.056 130.594 33.504C130.125 33.952 129.591 34.304 128.994 34.56C128.397 34.816 127.746 34.944 127.042 34.944C126.359 34.944 125.719 34.8267 125.122 34.592C124.525 34.336 124.002 33.984 123.554 33.536C123.085 33.088 122.711 32.5653 122.434 31.968C122.178 31.3493 122.05 30.688 122.05 29.984C122.05 29.3013 122.167 28.6613 122.402 28.064C122.658 27.4667 123.01 26.944 123.458 26.496C123.906 26.0267 124.429 25.664 125.026 25.408C125.645 25.152 126.317 25.024 127.042 25.024ZM141.765 36V34.752H139.365V24H135.589V25.248H138.053V34.752H135.589V36H141.765ZM139.781 19.744C139.781 19.4453 139.674 19.2 139.461 19.008C139.247 18.7947 139.002 18.688 138.725 18.688C138.469 18.688 138.234 18.7947 138.021 19.008C137.807 19.2 137.701 19.4453 137.701 19.744C137.701 20.0427 137.807 20.2987 138.021 20.512C138.234 20.704 138.469 20.8 138.725 20.8C139.002 20.8 139.247 20.704 139.461 20.512C139.674 20.2987 139.781 20.0427 139.781 19.744ZM154.235 34.848L153.403 33.856C152.976 34.1973 152.496 34.464 151.963 34.656C151.43 34.848 150.864 34.944 150.267 34.944C149.584 34.944 148.934 34.816 148.315 34.56C147.718 34.304 147.206 33.9627 146.779 33.536C146.31 33.088 145.947 32.5653 145.691 31.968C145.435 31.3493 145.307 30.688 145.307 29.984C145.307 29.28 145.435 28.6293 145.691 28.032C145.947 27.4133 146.32 26.8693 146.811 26.4C147.238 25.9733 147.75 25.6427 148.347 25.408C148.944 25.152 149.584 25.024 150.267 25.024C150.8 25.024 151.302 25.0987 151.771 25.248C152.24 25.3973 152.667 25.6107 153.051 25.888V28.256H154.267V25.12C153.734 24.6933 153.126 24.3627 152.443 24.128C151.76 23.872 151.035 23.744 150.267 23.744C149.392 23.744 148.571 23.9147 147.803 24.256C147.056 24.576 146.395 25.0133 145.819 25.568C145.243 26.1227 144.795 26.784 144.475 27.552C144.155 28.32 143.995 29.1307 143.995 29.984C143.995 30.8587 144.155 31.68 144.475 32.448C144.795 33.1947 145.254 33.8453 145.851 34.4C146.406 34.976 147.056 35.424 147.803 35.744C148.571 36.064 149.392 36.224 150.267 36.224C151.035 36.224 151.75 36.1067 152.411 35.872C153.072 35.616 153.68 35.2747 154.235 34.848ZM171.471 36V34.752H169.103V24H168.047C168.004 24.4693 167.972 24.9493 167.951 25.44C167.93 25.9093 167.919 26.368 167.919 26.816C167.556 25.984 166.927 25.2693 166.031 24.672C165.135 24.0533 164.058 23.744 162.799 23.744C161.903 23.744 161.071 23.9147 160.303 24.256C159.556 24.576 158.895 25.0133 158.319 25.568C157.743 26.144 157.295 26.816 156.975 27.584C156.655 28.352 156.495 29.152 156.495 29.984C156.495 30.8587 156.655 31.6693 156.975 32.416C157.295 33.1627 157.743 33.824 158.319 34.4C158.895 34.976 159.556 35.424 160.303 35.744C161.071 36.064 161.903 36.224 162.799 36.224C163.439 36.224 164.036 36.1387 164.591 35.968C165.167 35.7973 165.679 35.5627 166.127 35.264C166.554 34.9867 166.916 34.6773 167.215 34.336C167.535 33.9733 167.77 33.6 167.919 33.216C167.919 33.4933 167.919 33.7493 167.919 33.984C167.919 34.1973 167.919 34.432 167.919 34.688V36H171.471ZM162.799 25.024C163.482 25.024 164.122 25.152 164.719 25.408C165.316 25.6427 165.85 25.984 166.319 26.432C166.767 26.88 167.119 27.4133 167.375 28.032C167.652 28.6293 167.791 29.28 167.791 29.984C167.791 30.688 167.652 31.3493 167.375 31.968C167.119 32.5653 166.756 33.088 166.287 33.536C165.839 33.984 165.316 34.336 164.719 34.592C164.122 34.8267 163.482 34.944 162.799 34.944C162.116 34.944 161.487 34.8267 160.911 34.592C160.335 34.3573 159.823 34.0267 159.375 33.6C158.884 33.152 158.5 32.6187 158.223 32C157.946 31.3813 157.807 30.7093 157.807 29.984C157.807 29.3013 157.924 28.6613 158.159 28.064C158.415 27.4667 158.767 26.944 159.215 26.496C159.642 26.0267 160.164 25.664 160.783 25.408C161.402 25.152 162.074 25.024 162.799 25.024ZM183.954 34.848L183.122 33.856C182.695 34.1973 182.215 34.464 181.682 34.656C181.148 34.848 180.583 34.944 179.986 34.944C179.303 34.944 178.652 34.816 178.034 34.56C177.436 34.304 176.924 33.9627 176.498 33.536C176.028 33.088 175.666 32.5653 175.41 31.968C175.154 31.3493 175.026 30.688 175.026 29.984C175.026 29.28 175.154 28.6293 175.41 28.032C175.666 27.4133 176.039 26.8693 176.53 26.4C176.956 25.9733 177.468 25.6427 178.066 25.408C178.663 25.152 179.303 25.024 179.986 25.024C180.519 25.024 181.02 25.0987 181.49 25.248C181.959 25.3973 182.386 25.6107 182.77 25.888V28.256H183.986V25.12C183.452 24.6933 182.844 24.3627 182.162 24.128C181.479 23.872 180.754 23.744 179.986 23.744C179.111 23.744 178.29 23.9147 177.522 24.256C176.775 24.576 176.114 25.0133 175.538 25.568C174.962 26.1227 174.514 26.784 174.194 27.552C173.874 28.32 173.714 29.1307 173.714 29.984C173.714 30.8587 173.874 31.68 174.194 32.448C174.514 33.1947 174.972 33.8453 175.57 34.4C176.124 34.976 176.775 35.424 177.522 35.744C178.29 36.064 179.111 36.224 179.986 36.224C180.754 36.224 181.468 36.1067 182.13 35.872C182.791 35.616 183.399 35.2747 183.954 34.848ZM192.39 36V34.752H189.99V24H186.214V25.248H188.678V34.752H186.214V36H192.39ZM190.406 19.744C190.406 19.4453 190.299 19.2 190.086 19.008C189.872 18.7947 189.627 18.688 189.35 18.688C189.094 18.688 188.859 18.7947 188.646 19.008C188.432 19.2 188.326 19.4453 188.326 19.744C188.326 20.0427 188.432 20.2987 188.646 20.512C188.859 20.704 189.094 20.8 189.35 20.8C189.627 20.8 189.872 20.704 190.086 20.512C190.299 20.2987 190.406 20.0427 190.406 19.744ZM205.436 34.4C205.991 33.824 206.428 33.1627 206.748 32.416C207.089 31.6693 207.26 30.8587 207.26 29.984C207.26 29.1307 207.089 28.32 206.748 27.552C206.428 26.784 205.991 26.112 205.436 25.536C204.86 24.9813 204.177 24.544 203.388 24.224C202.62 23.8827 201.799 23.712 200.924 23.712C200.049 23.712 199.228 23.8827 198.46 24.224C197.692 24.544 197.031 24.9813 196.476 25.536C195.9 26.112 195.452 26.784 195.132 27.552C194.812 28.32 194.652 29.1307 194.652 29.984C194.652 30.8587 194.812 31.68 195.132 32.448C195.452 33.1947 195.9 33.8453 196.476 34.4C197.031 34.976 197.681 35.424 198.428 35.744C199.196 36.064 200.028 36.224 200.924 36.224C201.799 36.224 202.62 36.064 203.388 35.744C204.177 35.424 204.86 34.976 205.436 34.4ZM197.404 33.472C196.956 33.0453 196.604 32.5333 196.348 31.936C196.092 31.3387 195.964 30.688 195.964 29.984C195.964 29.3013 196.092 28.6613 196.348 28.064C196.604 27.4667 196.956 26.9333 197.404 26.464C197.852 26.016 198.375 25.664 198.972 25.408C199.569 25.152 200.209 25.024 200.892 25.024C201.575 25.024 202.215 25.152 202.812 25.408C203.431 25.664 203.964 26.016 204.412 26.464C204.881 26.9333 205.244 27.4773 205.5 28.096C205.756 28.6933 205.884 29.3227 205.884 29.984C205.884 30.688 205.756 31.3387 205.5 31.936C205.244 32.5333 204.881 33.0453 204.412 33.472C203.964 33.9413 203.431 34.304 202.812 34.56C202.215 34.816 201.575 34.944 200.892 34.944C200.209 34.944 199.569 34.816 198.972 34.56C198.375 34.304 197.852 33.9413 197.404 33.472ZM201.948 20.672C202.481 19.968 203.004 19.264 203.516 18.56C204.049 17.8347 204.593 17.12 205.148 16.416H203.772C203.281 17.12 202.801 17.8347 202.332 18.56C201.863 19.264 201.383 19.968 200.892 20.672H201.948ZM215.671 36V34.752H213.303V29.44C213.303 28.8 213.431 28.2133 213.687 27.68C213.964 27.1467 214.338 26.6773 214.807 26.272C215.234 25.888 215.746 25.5893 216.343 25.376C216.94 25.1627 217.57 25.056 218.231 25.056C219.127 25.0987 219.799 25.376 220.247 25.888C220.716 26.3787 220.972 26.976 221.015 27.68V34.752H218.519V36H224.695V34.752H222.327V27.328C222.284 26.2613 221.922 25.3973 221.239 24.736C220.556 24.0747 219.628 23.744 218.455 23.744C217.26 23.744 216.194 24.0533 215.255 24.672C214.316 25.2907 213.634 26.1013 213.207 27.104C213.186 26.7413 213.164 26.4213 213.143 26.144C213.122 25.8453 213.1 25.5147 213.079 25.152L213.047 24H209.687V25.248H211.991V34.752H209.495V36H215.671ZM229.589 34.944C229.589 34.6667 229.482 34.432 229.269 34.24C229.055 34.0267 228.821 33.92 228.565 33.92C228.287 33.92 228.042 34.0267 227.829 34.24C227.615 34.432 227.509 34.6667 227.509 34.944C227.509 35.2427 227.615 35.4987 227.829 35.712C228.042 35.904 228.287 36 228.565 36C228.821 36 229.055 35.904 229.269 35.712C229.482 35.4987 229.589 35.2427 229.589 34.944Z" fill="white"/>
</g>
<defs>
<filter id="filter0_d_138_87" x="38" y="0" width="249" height="57" filterUnits="userSpaceOnUse" color-interpolation-filters="sRGB">
<feFlood flood-opacity="0" result="BackgroundImageFix"/>
<feColorMatrix in="SourceAlpha" type="matrix" values="0 0 0 0 0 0 0 0 0 0 0 0 0 0 0 0 0 0 127 0" result="hardAlpha"/>
<feOffset dy="4"/>
<feGaussianBlur stdDeviation="2"/>
<feComposite in2="hardAlpha" operator="out"/>
<feColorMatrix type="matrix" values="0 0 0 0 0 0 0 0 0 0 0 0 0 0 0 0 0 0 0.25 0"/>
<feBlend mode="normal" in2="BackgroundImageFix" result="effect1_dropShadow_138_87"/>
<feBlend mode="normal" in="SourceGraphic" in2="effect1_dropShadow_138_87" result="shape"/>
</filter>
</defs>
</svg>
