<svg width="355" height="37" viewBox="0 0 355 37" fill="none" xmlns="http://www.w3.org/2000/svg">
<path d="M7.84169 1.8V8.104L0.113688 1.24V13H2.70569V6.696L10.4497 13.56V1.8H7.84169ZM12.1448 9.32C12.1448 10.088 12.3261 10.76 12.6888 11.336C13.0515 11.912 13.5528 12.36 14.1928 12.68C14.8328 13 15.5528 13.16 16.3528 13.16C17.1528 13.16 17.8675 13 18.4968 12.68C19.1368 12.36 19.6381 11.912 20.0008 11.336C20.3741 10.76 20.5608 10.088 20.5608 9.32C20.5608 8.54133 20.3741 7.864 20.0008 7.288C19.6381 6.712 19.1368 6.264 18.4968 5.944C17.8675 5.624 17.1528 5.464 16.3528 5.464C15.5528 5.464 14.8328 5.624 14.1928 5.944C13.5528 6.264 13.0515 6.712 12.6888 7.288C12.3261 7.864 12.1448 8.54133 12.1448 9.32ZM14.6248 9.32C14.6248 8.936 14.7048 8.60533 14.8648 8.328C15.0248 8.05067 15.2328 7.83733 15.4888 7.688C15.7448 7.53867 16.0328 7.464 16.3528 7.464C16.6621 7.464 16.9448 7.53867 17.2008 7.688C17.4675 7.83733 17.6755 8.05067 17.8248 8.328C17.9848 8.60533 18.0648 8.936 18.0648 9.32C18.0648 9.704 17.9848 10.0347 17.8248 10.312C17.6755 10.5787 17.4675 10.7867 17.2008 10.936C16.9448 11.0853 16.6621 11.16 16.3528 11.16C16.0328 11.16 15.7448 11.0853 15.4888 10.936C15.2328 10.7867 15.0248 10.5787 14.8648 10.312C14.7048 10.0347 14.6248 9.704 14.6248 9.32ZM29.2432 0.52H26.8112V13H29.2432V0.52ZM31.5952 8.52V13H34.0112V8.168C34.0112 7.56 33.9259 7.048 33.7552 6.632C33.5845 6.216 33.3125 5.90133 32.9392 5.688C32.5765 5.47467 32.0912 5.368 31.4832 5.368C30.8752 5.368 30.3739 5.512 29.9792 5.8C29.5952 6.07733 29.3072 6.456 29.1152 6.936C28.9232 7.40533 28.8272 7.93333 28.8272 8.52H29.2432C29.2432 8.232 29.2965 7.992 29.4032 7.8C29.5099 7.59733 29.6592 7.44267 29.8512 7.336C30.0432 7.21867 30.2672 7.16 30.5232 7.16C30.9179 7.16 31.1952 7.27733 31.3552 7.512C31.5152 7.74667 31.5952 8.08267 31.5952 8.52ZM37.7926 10.696C37.7926 10.5147 37.8352 10.3653 37.9206 10.248C38.0059 10.12 38.1339 10.024 38.3046 9.96C38.4752 9.896 38.7046 9.864 38.9926 9.864C39.3659 9.864 39.7179 9.91733 40.0486 10.024C40.3899 10.12 40.6886 10.264 40.9446 10.456V9.384C40.8166 9.24533 40.6246 9.112 40.3686 8.984C40.1126 8.856 39.8032 8.74933 39.4406 8.664C39.0886 8.57867 38.6886 8.536 38.2406 8.536C37.3232 8.536 36.6139 8.744 36.1126 9.16C35.6112 9.56533 35.3606 10.12 35.3606 10.824C35.3606 11.3253 35.4779 11.752 35.7126 12.104C35.9579 12.456 36.2779 12.7227 36.6726 12.904C37.0779 13.0747 37.5152 13.16 37.9846 13.16C38.4539 13.16 38.8912 13.08 39.2966 12.92C39.7019 12.7493 40.0326 12.504 40.2886 12.184C40.5446 11.8533 40.6726 11.4533 40.6726 10.984L40.4166 10.024C40.4166 10.3653 40.3419 10.6533 40.1926 10.888C40.0432 11.1227 39.8512 11.2987 39.6166 11.416C39.3819 11.5333 39.1259 11.592 38.8486 11.592C38.6566 11.592 38.4806 11.56 38.3206 11.496C38.1606 11.4213 38.0326 11.32 37.9366 11.192C37.8406 11.0533 37.7926 10.888 37.7926 10.696ZM36.7206 7.896C36.8272 7.832 36.9979 7.752 37.2326 7.656C37.4672 7.54933 37.7392 7.45867 38.0486 7.384C38.3686 7.30933 38.6939 7.272 39.0246 7.272C39.2486 7.272 39.4459 7.29333 39.6166 7.336C39.7979 7.37867 39.9472 7.448 40.0646 7.544C40.1819 7.64 40.2672 7.75733 40.3206 7.896C40.3846 8.024 40.4166 8.17867 40.4166 8.36V13H42.7366V7.816C42.7366 7.304 42.5872 6.872 42.2886 6.52C41.9899 6.168 41.5846 5.90133 41.0726 5.72C40.5606 5.528 39.9792 5.432 39.3286 5.432C38.6352 5.432 37.9952 5.52267 37.4086 5.704C36.8219 5.88533 36.3206 6.07733 35.9046 6.28L36.7206 7.896ZM52.0034 5.64H49.5234L47.1714 11.528L48.4194 11.544L46.0354 5.64H43.3794L46.5634 12.408L44.7714 16.52H47.2034L52.0034 5.64ZM60.0401 0.52H57.6081V13H60.0401V0.52ZM62.3921 8.52V13H64.8081V8.168C64.8081 7.56 64.7227 7.048 64.5521 6.632C64.3814 6.216 64.1094 5.90133 63.7361 5.688C63.3734 5.47467 62.8881 5.368 62.2801 5.368C61.6721 5.368 61.1707 5.512 60.7761 5.8C60.3921 6.07733 60.1041 6.456 59.9121 6.936C59.7201 7.40533 59.6241 7.93333 59.6241 8.52H60.0401C60.0401 8.232 60.0934 7.992 60.2001 7.8C60.3067 7.59733 60.4561 7.44267 60.6481 7.336C60.8401 7.21867 61.0641 7.16 61.3201 7.16C61.7147 7.16 61.9921 7.27733 62.1521 7.512C62.3121 7.74667 62.3921 8.08267 62.3921 8.52ZM66.2854 9.32C66.2854 10.088 66.4668 10.76 66.8294 11.336C67.1921 11.912 67.6934 12.36 68.3334 12.68C68.9734 13 69.6934 13.16 70.4934 13.16C71.2934 13.16 72.0081 13 72.6374 12.68C73.2774 12.36 73.7788 11.912 74.1414 11.336C74.5148 10.76 74.7014 10.088 74.7014 9.32C74.7014 8.54133 74.5148 7.864 74.1414 7.288C73.7788 6.712 73.2774 6.264 72.6374 5.944C72.0081 5.624 71.2934 5.464 70.4934 5.464C69.6934 5.464 68.9734 5.624 68.3334 5.944C67.6934 6.264 67.1921 6.712 66.8294 7.288C66.4668 7.864 66.2854 8.54133 66.2854 9.32ZM68.7654 9.32C68.7654 8.936 68.8454 8.60533 69.0054 8.328C69.1654 8.05067 69.3734 7.83733 69.6294 7.688C69.8854 7.53867 70.1734 7.464 70.4934 7.464C70.8028 7.464 71.0854 7.53867 71.3414 7.688C71.6081 7.83733 71.8161 8.05067 71.9654 8.328C72.1254 8.60533 72.2054 8.936 72.2054 9.32C72.2054 9.704 72.1254 10.0347 71.9654 10.312C71.8161 10.5787 71.6081 10.7867 71.3414 10.936C71.0854 11.0853 70.8028 11.16 70.4934 11.16C70.1734 11.16 69.8854 11.0853 69.6294 10.936C69.3734 10.7867 69.1654 10.5787 69.0054 10.312C68.8454 10.0347 68.7654 9.704 68.7654 9.32ZM87.3869 8.264C87.3869 7.66667 87.3123 7.16 87.1629 6.744C87.0136 6.328 86.7683 6.01333 86.4269 5.8C86.0963 5.576 85.6429 5.464 85.0669 5.464C84.5656 5.464 84.1176 5.57067 83.7229 5.784C83.3283 5.99733 82.9976 6.296 82.7309 6.68C82.5816 6.28533 82.3363 5.98667 81.9949 5.784C81.6536 5.57067 81.1949 5.464 80.6189 5.464C80.1176 5.464 79.6856 5.576 79.3229 5.8C78.9709 6.024 78.6936 6.33333 78.4909 6.728V5.64H76.1549V13H78.4909V8.52C78.4909 8.22133 78.5336 7.97067 78.6189 7.768C78.7149 7.56533 78.8429 7.416 79.0029 7.32C79.1736 7.21333 79.3656 7.16 79.5789 7.16C79.9096 7.16 80.1443 7.27733 80.2829 7.512C80.4323 7.736 80.5069 8.072 80.5069 8.52V13H82.9389V8.52C82.9389 8.22133 82.9816 7.97067 83.0669 7.768C83.1629 7.56533 83.2909 7.416 83.4509 7.32C83.6216 7.21333 83.8136 7.16 84.0269 7.16C84.3576 7.16 84.5923 7.27733 84.7309 7.512C84.8803 7.736 84.9549 8.072 84.9549 8.52V13H87.3869V8.264ZM91.6799 0.52H89.2639V13H91.6799V0.52ZM97.6959 9.32C97.6959 8.488 97.5253 7.78933 97.1839 7.224C96.8533 6.65867 96.4213 6.22667 95.8879 5.928C95.3653 5.62933 94.7999 5.48 94.1919 5.48C93.5839 5.48 93.0399 5.63467 92.5599 5.944C92.0799 6.25333 91.7013 6.696 91.4239 7.272C91.1466 7.83733 91.0079 8.52 91.0079 9.32C91.0079 10.1093 91.1466 10.792 91.4239 11.368C91.7013 11.944 92.0799 12.3867 92.5599 12.696C93.0399 13.0053 93.5839 13.16 94.1919 13.16C94.7999 13.16 95.3653 13.0107 95.8879 12.712C96.4213 12.4133 96.8533 11.9813 97.1839 11.416C97.5253 10.84 97.6959 10.1413 97.6959 9.32ZM95.1519 9.32C95.1519 9.704 95.0719 10.04 94.9119 10.328C94.7519 10.6053 94.5386 10.824 94.2719 10.984C94.0053 11.1333 93.7119 11.208 93.3919 11.208C93.1146 11.208 92.8426 11.1333 92.5759 10.984C92.3199 10.8347 92.1066 10.6213 91.9359 10.344C91.7653 10.056 91.6799 9.71467 91.6799 9.32C91.6799 8.92533 91.7653 8.58933 91.9359 8.312C92.1066 8.024 92.3199 7.80533 92.5759 7.656C92.8426 7.50667 93.1146 7.432 93.3919 7.432C93.7119 7.432 94.0053 7.512 94.2719 7.672C94.5386 7.82133 94.7519 8.04 94.9119 8.328C95.0719 8.60533 95.1519 8.936 95.1519 9.32ZM101.539 5.64H99.1549V13H101.539V5.64ZM103.667 8.136L104.707 6.072C104.579 5.88 104.392 5.73067 104.147 5.624C103.902 5.51733 103.646 5.464 103.379 5.464C102.974 5.464 102.584 5.59733 102.211 5.864C101.838 6.13067 101.534 6.49333 101.299 6.952C101.075 7.41067 100.963 7.93333 100.963 8.52L101.539 9.368C101.539 9.016 101.587 8.71733 101.683 8.472C101.779 8.22667 101.918 8.04 102.099 7.912C102.28 7.784 102.488 7.72 102.723 7.72C102.936 7.72 103.112 7.75733 103.251 7.832C103.4 7.90667 103.539 8.008 103.667 8.136ZM109.243 13.16C110.181 13.16 110.976 12.9787 111.627 12.616C112.288 12.2533 112.811 11.7093 113.195 10.984L111.035 10.456C110.853 10.776 110.608 11.016 110.299 11.176C110 11.336 109.637 11.416 109.211 11.416C108.837 11.416 108.523 11.336 108.267 11.176C108.011 11.0053 107.819 10.76 107.691 10.44C107.563 10.12 107.499 9.736 107.499 9.288C107.509 8.79733 107.573 8.392 107.691 8.072C107.819 7.74133 108.005 7.496 108.251 7.336C108.496 7.176 108.8 7.096 109.163 7.096C109.451 7.096 109.701 7.16 109.915 7.288C110.128 7.416 110.293 7.59733 110.411 7.832C110.528 8.06667 110.587 8.344 110.587 8.664C110.587 8.73867 110.565 8.83467 110.523 8.952C110.491 9.05867 110.448 9.14933 110.395 9.224L110.971 8.488H106.427V9.832H113.147C113.168 9.75733 113.179 9.66667 113.179 9.56C113.179 9.44267 113.179 9.32533 113.179 9.208C113.179 8.41867 113.024 7.74667 112.715 7.192C112.405 6.63733 111.957 6.216 111.371 5.928C110.784 5.62933 110.064 5.48 109.211 5.48C108.357 5.48 107.616 5.63467 106.987 5.944C106.368 6.25333 105.893 6.696 105.563 7.272C105.232 7.848 105.067 8.53067 105.067 9.32C105.067 10.0987 105.237 10.776 105.579 11.352C105.92 11.928 106.4 12.376 107.019 12.696C107.648 13.0053 108.389 13.16 109.243 13.16ZM115.071 10.328L114.063 11.928C114.393 12.184 114.751 12.4187 115.135 12.632C115.519 12.8347 115.935 12.9947 116.383 13.112C116.841 13.24 117.337 13.304 117.871 13.304C118.745 13.304 119.423 13.1067 119.903 12.712C120.393 12.3067 120.639 11.7093 120.639 10.92C120.639 10.4613 120.537 10.0933 120.335 9.816C120.143 9.53867 119.881 9.30933 119.551 9.128C119.231 8.94667 118.879 8.78667 118.495 8.648C118.132 8.50933 117.823 8.39733 117.567 8.312C117.321 8.216 117.129 8.11467 116.991 8.008C116.863 7.90133 116.799 7.768 116.799 7.608C116.799 7.46933 116.852 7.35733 116.959 7.272C117.076 7.18667 117.247 7.144 117.471 7.144C117.801 7.144 118.164 7.24 118.559 7.432C118.953 7.61333 119.305 7.848 119.615 8.136L120.479 6.568C120.191 6.35467 119.881 6.168 119.551 6.008C119.231 5.848 118.884 5.72 118.511 5.624C118.148 5.528 117.753 5.48 117.327 5.48C116.793 5.48 116.319 5.56 115.903 5.72C115.497 5.88 115.172 6.11467 114.927 6.424C114.692 6.73333 114.575 7.112 114.575 7.56C114.575 8.02933 114.676 8.41333 114.879 8.712C115.081 9.01067 115.337 9.25067 115.647 9.432C115.967 9.60267 116.303 9.752 116.655 9.88C117.049 9.99733 117.359 10.1093 117.583 10.216C117.817 10.3227 117.983 10.4347 118.079 10.552C118.175 10.6587 118.223 10.792 118.223 10.952C118.223 11.1227 118.164 11.2613 118.047 11.368C117.929 11.4747 117.748 11.528 117.503 11.528C117.332 11.528 117.129 11.496 116.895 11.432C116.66 11.3573 116.388 11.2347 116.079 11.064C115.78 10.8827 115.444 10.6373 115.071 10.328ZM126.108 5.64V7.64H131.132V5.64H126.108ZM130.86 2.84L131.836 1.064C131.73 0.957333 131.586 0.845333 131.404 0.728C131.223 0.599999 131.004 0.493333 130.748 0.407999C130.492 0.311999 130.178 0.263999 129.804 0.263999C129.196 0.263999 128.684 0.370666 128.268 0.584C127.863 0.797333 127.554 1.10133 127.34 1.496C127.138 1.89067 127.036 2.36533 127.036 2.92V13H129.356V3.528C129.356 3.272 129.388 3.064 129.452 2.904C129.516 2.744 129.602 2.62667 129.708 2.552C129.826 2.47733 129.964 2.44 130.124 2.44C130.263 2.44 130.391 2.472 130.508 2.536C130.636 2.6 130.754 2.70133 130.86 2.84ZM136.008 13.16C136.947 13.16 137.742 12.9787 138.392 12.616C139.054 12.2533 139.576 11.7093 139.96 10.984L137.8 10.456C137.619 10.776 137.374 11.016 137.064 11.176C136.766 11.336 136.403 11.416 135.976 11.416C135.603 11.416 135.288 11.336 135.032 11.176C134.776 11.0053 134.584 10.76 134.456 10.44C134.328 10.12 134.264 9.736 134.264 9.288C134.275 8.79733 134.339 8.392 134.456 8.072C134.584 7.74133 134.771 7.496 135.016 7.336C135.262 7.176 135.566 7.096 135.928 7.096C136.216 7.096 136.467 7.16 136.68 7.288C136.894 7.416 137.059 7.59733 137.176 7.832C137.294 8.06667 137.352 8.344 137.352 8.664C137.352 8.73867 137.331 8.83467 137.288 8.952C137.256 9.05867 137.214 9.14933 137.16 9.224L137.736 8.488H133.192V9.832H139.912C139.934 9.75733 139.944 9.66667 139.944 9.56C139.944 9.44267 139.944 9.32533 139.944 9.208C139.944 8.41867 139.79 7.74667 139.48 7.192C139.171 6.63733 138.723 6.216 138.136 5.928C137.55 5.62933 136.83 5.48 135.976 5.48C135.123 5.48 134.382 5.63467 133.752 5.944C133.134 6.25333 132.659 6.696 132.328 7.272C131.998 7.848 131.832 8.53067 131.832 9.32C131.832 10.0987 132.003 10.776 132.344 11.352C132.686 11.928 133.166 12.376 133.784 12.696C134.414 13.0053 135.155 13.16 136.008 13.16ZM141.004 9.32C141.004 10.088 141.186 10.76 141.548 11.336C141.911 11.912 142.412 12.36 143.052 12.68C143.692 13 144.412 13.16 145.212 13.16C146.012 13.16 146.727 13 147.356 12.68C147.996 12.36 148.498 11.912 148.86 11.336C149.234 10.76 149.42 10.088 149.42 9.32C149.42 8.54133 149.234 7.864 148.86 7.288C148.498 6.712 147.996 6.264 147.356 5.944C146.727 5.624 146.012 5.464 145.212 5.464C144.412 5.464 143.692 5.624 143.052 5.944C142.412 6.264 141.911 6.712 141.548 7.288C141.186 7.864 141.004 8.54133 141.004 9.32ZM143.484 9.32C143.484 8.936 143.564 8.60533 143.724 8.328C143.884 8.05067 144.092 7.83733 144.348 7.688C144.604 7.53867 144.892 7.464 145.212 7.464C145.522 7.464 145.804 7.53867 146.06 7.688C146.327 7.83733 146.535 8.05067 146.684 8.328C146.844 8.60533 146.924 8.936 146.924 9.32C146.924 9.704 146.844 10.0347 146.684 10.312C146.535 10.5787 146.327 10.7867 146.06 10.936C145.804 11.0853 145.522 11.16 145.212 11.16C144.892 11.16 144.604 11.0853 144.348 10.936C144.092 10.7867 143.884 10.5787 143.724 10.312C143.564 10.0347 143.484 9.704 143.484 9.32ZM151.274 10.328L150.266 11.928C150.596 12.184 150.954 12.4187 151.338 12.632C151.722 12.8347 152.138 12.9947 152.586 13.112C153.044 13.24 153.54 13.304 154.074 13.304C154.948 13.304 155.626 13.1067 156.106 12.712C156.596 12.3067 156.842 11.7093 156.842 10.92C156.842 10.4613 156.74 10.0933 156.538 9.816C156.346 9.53867 156.084 9.30933 155.754 9.128C155.434 8.94667 155.082 8.78667 154.698 8.648C154.335 8.50933 154.026 8.39733 153.77 8.312C153.524 8.216 153.332 8.11467 153.194 8.008C153.066 7.90133 153.002 7.768 153.002 7.608C153.002 7.46933 153.055 7.35733 153.162 7.272C153.279 7.18667 153.45 7.144 153.674 7.144C154.004 7.144 154.367 7.24 154.762 7.432C155.156 7.61333 155.508 7.848 155.818 8.136L156.682 6.568C156.394 6.35467 156.084 6.168 155.754 6.008C155.434 5.848 155.087 5.72 154.714 5.624C154.351 5.528 153.956 5.48 153.53 5.48C152.996 5.48 152.522 5.56 152.106 5.72C151.7 5.88 151.375 6.11467 151.13 6.424C150.895 6.73333 150.778 7.112 150.778 7.56C150.778 8.02933 150.879 8.41333 151.082 8.712C151.284 9.01067 151.54 9.25067 151.85 9.432C152.17 9.60267 152.506 9.752 152.858 9.88C153.252 9.99733 153.562 10.1093 153.786 10.216C154.02 10.3227 154.186 10.4347 154.282 10.552C154.378 10.6587 154.426 10.792 154.426 10.952C154.426 11.1227 154.367 11.2613 154.25 11.368C154.132 11.4747 153.951 11.528 153.706 11.528C153.535 11.528 153.332 11.496 153.098 11.432C152.863 11.3573 152.591 11.2347 152.282 11.064C151.983 10.8827 151.647 10.6373 151.274 10.328ZM159.147 11.24L157.739 15.384L159.563 15.752L161.579 11.752L159.147 11.24ZM168.555 10.328L167.547 11.928C167.878 12.184 168.235 12.4187 168.619 12.632C169.003 12.8347 169.419 12.9947 169.867 13.112C170.326 13.24 170.822 13.304 171.355 13.304C172.23 13.304 172.907 13.1067 173.387 12.712C173.878 12.3067 174.123 11.7093 174.123 10.92C174.123 10.4613 174.022 10.0933 173.819 9.816C173.627 9.53867 173.366 9.30933 173.035 9.128C172.715 8.94667 172.363 8.78667 171.979 8.648C171.616 8.50933 171.307 8.39733 171.051 8.312C170.806 8.216 170.614 8.11467 170.475 8.008C170.347 7.90133 170.283 7.768 170.283 7.608C170.283 7.46933 170.336 7.35733 170.443 7.272C170.56 7.18667 170.731 7.144 170.955 7.144C171.286 7.144 171.648 7.24 172.043 7.432C172.438 7.61333 172.79 7.848 173.099 8.136L173.963 6.568C173.675 6.35467 173.366 6.168 173.035 6.008C172.715 5.848 172.368 5.72 171.995 5.624C171.632 5.528 171.238 5.48 170.811 5.48C170.278 5.48 169.803 5.56 169.387 5.72C168.982 5.88 168.656 6.11467 168.411 6.424C168.176 6.73333 168.059 7.112 168.059 7.56C168.059 8.02933 168.16 8.41333 168.363 8.712C168.566 9.01067 168.822 9.25067 169.131 9.432C169.451 9.60267 169.787 9.752 170.139 9.88C170.534 9.99733 170.843 10.1093 171.067 10.216C171.302 10.3227 171.467 10.4347 171.563 10.552C171.659 10.6587 171.707 10.792 171.707 10.952C171.707 11.1227 171.648 11.2613 171.531 11.368C171.414 11.4747 171.232 11.528 170.987 11.528C170.816 11.528 170.614 11.496 170.379 11.432C170.144 11.3573 169.872 11.2347 169.563 11.064C169.264 10.8827 168.928 10.6373 168.555 10.328ZM175.02 9.32C175.02 10.088 175.201 10.76 175.564 11.336C175.926 11.912 176.428 12.36 177.068 12.68C177.708 13 178.428 13.16 179.228 13.16C180.028 13.16 180.742 13 181.372 12.68C182.012 12.36 182.513 11.912 182.876 11.336C183.249 10.76 183.436 10.088 183.436 9.32C183.436 8.54133 183.249 7.864 182.876 7.288C182.513 6.712 182.012 6.264 181.372 5.944C180.742 5.624 180.028 5.464 179.228 5.464C178.428 5.464 177.708 5.624 177.068 5.944C176.428 6.264 175.926 6.712 175.564 7.288C175.201 7.864 175.02 8.54133 175.02 9.32ZM177.5 9.32C177.5 8.936 177.58 8.60533 177.74 8.328C177.9 8.05067 178.108 7.83733 178.364 7.688C178.62 7.53867 178.908 7.464 179.228 7.464C179.537 7.464 179.82 7.53867 180.076 7.688C180.342 7.83733 180.55 8.05067 180.7 8.328C180.86 8.60533 180.94 8.936 180.94 9.32C180.94 9.704 180.86 10.0347 180.7 10.312C180.55 10.5787 180.342 10.7867 180.076 10.936C179.82 11.0853 179.537 11.16 179.228 11.16C178.908 11.16 178.62 11.0853 178.364 10.936C178.108 10.7867 177.9 10.5787 177.74 10.312C177.58 10.0347 177.5 9.704 177.5 9.32ZM184.889 0.52V13H187.321V0.52H184.889ZM188.77 9.32C188.77 10.088 188.951 10.76 189.314 11.336C189.676 11.912 190.178 12.36 190.818 12.68C191.458 13 192.178 13.16 192.978 13.16C193.778 13.16 194.492 13 195.122 12.68C195.762 12.36 196.263 11.912 196.626 11.336C196.999 10.76 197.186 10.088 197.186 9.32C197.186 8.54133 196.999 7.864 196.626 7.288C196.263 6.712 195.762 6.264 195.122 5.944C194.492 5.624 193.778 5.464 192.978 5.464C192.178 5.464 191.458 5.624 190.818 5.944C190.178 6.264 189.676 6.712 189.314 7.288C188.951 7.864 188.77 8.54133 188.77 9.32ZM191.25 9.32C191.25 8.936 191.33 8.60533 191.49 8.328C191.65 8.05067 191.858 7.83733 192.114 7.688C192.37 7.53867 192.658 7.464 192.978 7.464C193.287 7.464 193.57 7.53867 193.826 7.688C194.092 7.83733 194.3 8.05067 194.45 8.328C194.61 8.60533 194.69 8.936 194.69 9.32C194.69 9.704 194.61 10.0347 194.45 10.312C194.3 10.5787 194.092 10.7867 193.826 10.936C193.57 11.0853 193.287 11.16 192.978 11.16C192.658 11.16 192.37 11.0853 192.114 10.936C191.858 10.7867 191.65 10.5787 191.49 10.312C191.33 10.0347 191.25 9.704 191.25 9.32ZM205.868 0.52H203.436V13H205.868V0.52ZM208.22 8.52V13H210.636V8.168C210.636 7.56 210.551 7.048 210.38 6.632C210.21 6.216 209.938 5.90133 209.564 5.688C209.202 5.47467 208.716 5.368 208.108 5.368C207.5 5.368 206.999 5.512 206.604 5.8C206.22 6.07733 205.932 6.456 205.74 6.936C205.548 7.40533 205.452 7.93333 205.452 8.52H205.868C205.868 8.232 205.922 7.992 206.028 7.8C206.135 7.59733 206.284 7.44267 206.476 7.336C206.668 7.21867 206.892 7.16 207.148 7.16C207.543 7.16 207.82 7.27733 207.98 7.512C208.14 7.74667 208.22 8.08267 208.22 8.52ZM212.114 9.32C212.114 10.088 212.295 10.76 212.658 11.336C213.02 11.912 213.522 12.36 214.162 12.68C214.802 13 215.522 13.16 216.322 13.16C217.122 13.16 217.836 13 218.466 12.68C219.106 12.36 219.607 11.912 219.97 11.336C220.343 10.76 220.53 10.088 220.53 9.32C220.53 8.54133 220.343 7.864 219.97 7.288C219.607 6.712 219.106 6.264 218.466 5.944C217.836 5.624 217.122 5.464 216.322 5.464C215.522 5.464 214.802 5.624 214.162 5.944C213.522 6.264 213.02 6.712 212.658 7.288C212.295 7.864 212.114 8.54133 212.114 9.32ZM214.594 9.32C214.594 8.936 214.674 8.60533 214.834 8.328C214.994 8.05067 215.202 7.83733 215.458 7.688C215.714 7.53867 216.002 7.464 216.322 7.464C216.631 7.464 216.914 7.53867 217.17 7.688C217.436 7.83733 217.644 8.05067 217.794 8.328C217.954 8.60533 218.034 8.936 218.034 9.32C218.034 9.704 217.954 10.0347 217.794 10.312C217.644 10.5787 217.436 10.7867 217.17 10.936C216.914 11.0853 216.631 11.16 216.322 11.16C216.002 11.16 215.714 11.0853 215.458 10.936C215.202 10.7867 214.994 10.5787 214.834 10.312C214.674 10.0347 214.594 9.704 214.594 9.32ZM233.215 8.264C233.215 7.66667 233.14 7.16 232.991 6.744C232.842 6.328 232.596 6.01333 232.255 5.8C231.924 5.576 231.471 5.464 230.895 5.464C230.394 5.464 229.946 5.57067 229.551 5.784C229.156 5.99733 228.826 6.296 228.559 6.68C228.41 6.28533 228.164 5.98667 227.823 5.784C227.482 5.57067 227.023 5.464 226.447 5.464C225.946 5.464 225.514 5.576 225.151 5.8C224.799 6.024 224.522 6.33333 224.319 6.728V5.64H221.983V13H224.319V8.52C224.319 8.22133 224.362 7.97067 224.447 7.768C224.543 7.56533 224.671 7.416 224.831 7.32C225.002 7.21333 225.194 7.16 225.407 7.16C225.738 7.16 225.972 7.27733 226.111 7.512C226.26 7.736 226.335 8.072 226.335 8.52V13H228.767V8.52C228.767 8.22133 228.81 7.97067 228.895 7.768C228.991 7.56533 229.119 7.416 229.279 7.32C229.45 7.21333 229.642 7.16 229.855 7.16C230.186 7.16 230.42 7.27733 230.559 7.512C230.708 7.736 230.783 8.072 230.783 8.52V13H233.215V8.264ZM237.508 0.52H235.092V13H237.508V0.52ZM243.524 9.32C243.524 8.488 243.353 7.78933 243.012 7.224C242.681 6.65867 242.249 6.22667 241.716 5.928C241.193 5.62933 240.628 5.48 240.02 5.48C239.412 5.48 238.868 5.63467 238.388 5.944C237.908 6.25333 237.529 6.696 237.252 7.272C236.975 7.83733 236.836 8.52 236.836 9.32C236.836 10.1093 236.975 10.792 237.252 11.368C237.529 11.944 237.908 12.3867 238.388 12.696C238.868 13.0053 239.412 13.16 240.02 13.16C240.628 13.16 241.193 13.0107 241.716 12.712C242.249 12.4133 242.681 11.9813 243.012 11.416C243.353 10.84 243.524 10.1413 243.524 9.32ZM240.98 9.32C240.98 9.704 240.9 10.04 240.74 10.328C240.58 10.6053 240.367 10.824 240.1 10.984C239.833 11.1333 239.54 11.208 239.22 11.208C238.943 11.208 238.671 11.1333 238.404 10.984C238.148 10.8347 237.935 10.6213 237.764 10.344C237.593 10.056 237.508 9.71467 237.508 9.32C237.508 8.92533 237.593 8.58933 237.764 8.312C237.935 8.024 238.148 7.80533 238.404 7.656C238.671 7.50667 238.943 7.432 239.22 7.432C239.54 7.432 239.833 7.512 240.1 7.672C240.367 7.82133 240.58 8.04 240.74 8.328C240.9 8.60533 240.98 8.936 240.98 9.32ZM247.367 5.64H244.983V13H247.367V5.64ZM249.495 8.136L250.535 6.072C250.407 5.88 250.22 5.73067 249.975 5.624C249.73 5.51733 249.474 5.464 249.207 5.464C248.802 5.464 248.412 5.59733 248.039 5.864C247.666 6.13067 247.362 6.49333 247.127 6.952C246.903 7.41067 246.791 7.93333 246.791 8.52L247.367 9.368C247.367 9.016 247.415 8.71733 247.511 8.472C247.607 8.22667 247.746 8.04 247.927 7.912C248.108 7.784 248.316 7.72 248.551 7.72C248.764 7.72 248.94 7.75733 249.079 7.832C249.228 7.90667 249.367 8.008 249.495 8.136ZM255.071 13.16C256.009 13.16 256.804 12.9787 257.455 12.616C258.116 12.2533 258.639 11.7093 259.023 10.984L256.863 10.456C256.681 10.776 256.436 11.016 256.127 11.176C255.828 11.336 255.465 11.416 255.039 11.416C254.665 11.416 254.351 11.336 254.095 11.176C253.839 11.0053 253.647 10.76 253.519 10.44C253.391 10.12 253.327 9.736 253.327 9.288C253.337 8.79733 253.401 8.392 253.519 8.072C253.647 7.74133 253.833 7.496 254.079 7.336C254.324 7.176 254.628 7.096 254.991 7.096C255.279 7.096 255.529 7.16 255.743 7.288C255.956 7.416 256.121 7.59733 256.239 7.832C256.356 8.06667 256.415 8.344 256.415 8.664C256.415 8.73867 256.393 8.83467 256.351 8.952C256.319 9.05867 256.276 9.14933 256.223 9.224L256.799 8.488H252.255V9.832H258.975C258.996 9.75733 259.007 9.66667 259.007 9.56C259.007 9.44267 259.007 9.32533 259.007 9.208C259.007 8.41867 258.852 7.74667 258.543 7.192C258.233 6.63733 257.785 6.216 257.199 5.928C256.612 5.62933 255.892 5.48 255.039 5.48C254.185 5.48 253.444 5.63467 252.815 5.944C252.196 6.25333 251.721 6.696 251.391 7.272C251.06 7.848 250.895 8.53067 250.895 9.32C250.895 10.0987 251.065 10.776 251.407 11.352C251.748 11.928 252.228 12.376 252.847 12.696C253.476 13.0053 254.217 13.16 255.071 13.16ZM260.899 10.328L259.891 11.928C260.221 12.184 260.579 12.4187 260.963 12.632C261.347 12.8347 261.763 12.9947 262.211 13.112C262.669 13.24 263.165 13.304 263.699 13.304C264.573 13.304 265.251 13.1067 265.731 12.712C266.221 12.3067 266.467 11.7093 266.467 10.92C266.467 10.4613 266.365 10.0933 266.163 9.816C265.971 9.53867 265.709 9.30933 265.379 9.128C265.059 8.94667 264.707 8.78667 264.323 8.648C263.96 8.50933 263.651 8.39733 263.395 8.312C263.149 8.216 262.957 8.11467 262.819 8.008C262.691 7.90133 262.627 7.768 262.627 7.608C262.627 7.46933 262.68 7.35733 262.787 7.272C262.904 7.18667 263.075 7.144 263.299 7.144C263.629 7.144 263.992 7.24 264.387 7.432C264.781 7.61333 265.133 7.848 265.443 8.136L266.307 6.568C266.019 6.35467 265.709 6.168 265.379 6.008C265.059 5.848 264.712 5.72 264.339 5.624C263.976 5.528 263.581 5.48 263.155 5.48C262.621 5.48 262.147 5.56 261.731 5.72C261.325 5.88 261 6.11467 260.755 6.424C260.52 6.73333 260.403 7.112 260.403 7.56C260.403 8.02933 260.504 8.41333 260.707 8.712C260.909 9.01067 261.165 9.25067 261.475 9.432C261.795 9.60267 262.131 9.752 262.483 9.88C262.877 9.99733 263.187 10.1093 263.411 10.216C263.645 10.3227 263.811 10.4347 263.907 10.552C264.003 10.6587 264.051 10.792 264.051 10.952C264.051 11.1227 263.992 11.2613 263.875 11.368C263.757 11.4747 263.576 11.528 263.331 11.528C263.16 11.528 262.957 11.496 262.723 11.432C262.488 11.3573 262.216 11.2347 261.907 11.064C261.608 10.8827 261.272 10.6373 260.899 10.328ZM278.176 16.52H280.592V5.64H278.176V16.52ZM272.16 9.32C272.16 10.1733 272.326 10.8933 272.656 11.48C272.998 12.0667 273.435 12.5093 273.968 12.808C274.502 13.1067 275.067 13.256 275.664 13.256C276.315 13.256 276.87 13.096 277.328 12.776C277.787 12.4453 278.139 11.9867 278.384 11.4C278.63 10.8027 278.752 10.1093 278.752 9.32C278.752 8.52 278.63 7.82667 278.384 7.24C278.139 6.65333 277.787 6.2 277.328 5.88C276.87 5.54933 276.315 5.384 275.664 5.384C275.067 5.384 274.502 5.53333 273.968 5.832C273.435 6.13067 272.998 6.57333 272.656 7.16C272.326 7.736 272.16 8.456 272.16 9.32ZM274.704 9.32C274.704 8.936 274.784 8.61067 274.944 8.344C275.104 8.07733 275.318 7.87467 275.584 7.736C275.851 7.59733 276.144 7.528 276.464 7.528C276.742 7.528 277.008 7.59733 277.264 7.736C277.531 7.864 277.75 8.06133 277.92 8.328C278.091 8.59467 278.176 8.92533 278.176 9.32C278.176 9.71467 278.091 10.0453 277.92 10.312C277.75 10.5787 277.531 10.7813 277.264 10.92C277.008 11.048 276.742 11.112 276.464 11.112C276.144 11.112 275.851 11.0427 275.584 10.904C275.318 10.7653 275.104 10.5627 274.944 10.296C274.784 10.0293 274.704 9.704 274.704 9.32ZM284.995 10.12V5.64H282.467V10.376C282.467 11.2507 282.675 11.9387 283.091 12.44C283.518 12.9307 284.19 13.176 285.107 13.176C285.651 13.176 286.105 13.064 286.467 12.84C286.83 12.6053 287.123 12.2907 287.347 11.896V13H289.763V5.64H287.347V10.12C287.347 10.408 287.294 10.6533 287.187 10.856C287.081 11.0587 286.931 11.2133 286.739 11.32C286.558 11.4267 286.334 11.48 286.067 11.48C285.673 11.48 285.395 11.3627 285.235 11.128C285.075 10.8827 284.995 10.5467 284.995 10.12ZM295.415 13.16C296.353 13.16 297.148 12.9787 297.799 12.616C298.46 12.2533 298.983 11.7093 299.367 10.984L297.207 10.456C297.025 10.776 296.78 11.016 296.471 11.176C296.172 11.336 295.809 11.416 295.383 11.416C295.009 11.416 294.695 11.336 294.439 11.176C294.183 11.0053 293.991 10.76 293.863 10.44C293.735 10.12 293.671 9.736 293.671 9.288C293.681 8.79733 293.745 8.392 293.863 8.072C293.991 7.74133 294.177 7.496 294.423 7.336C294.668 7.176 294.972 7.096 295.335 7.096C295.623 7.096 295.873 7.16 296.087 7.288C296.3 7.416 296.465 7.59733 296.583 7.832C296.7 8.06667 296.759 8.344 296.759 8.664C296.759 8.73867 296.737 8.83467 296.695 8.952C296.663 9.05867 296.62 9.14933 296.567 9.224L297.143 8.488H292.599V9.832H299.319C299.34 9.75733 299.351 9.66667 299.351 9.56C299.351 9.44267 299.351 9.32533 299.351 9.208C299.351 8.41867 299.196 7.74667 298.887 7.192C298.577 6.63733 298.129 6.216 297.543 5.928C296.956 5.62933 296.236 5.48 295.383 5.48C294.529 5.48 293.788 5.63467 293.159 5.944C292.54 6.25333 292.065 6.696 291.735 7.272C291.404 7.848 291.239 8.53067 291.239 9.32C291.239 10.0987 291.409 10.776 291.751 11.352C292.092 11.928 292.572 12.376 293.191 12.696C293.82 13.0053 294.561 13.16 295.415 13.16ZM310.423 8.52V13H312.935V8.264C312.935 7.37867 312.727 6.69067 312.311 6.2C311.895 5.70933 311.229 5.464 310.311 5.464C309.767 5.464 309.309 5.576 308.935 5.8C308.573 6.024 308.285 6.33867 308.071 6.744V5.64H305.639V13H308.071V8.52C308.071 8.232 308.125 7.98667 308.231 7.784C308.338 7.58133 308.487 7.42667 308.679 7.32C308.871 7.21333 309.095 7.16 309.351 7.16C309.735 7.16 310.007 7.27733 310.167 7.512C310.338 7.74667 310.423 8.08267 310.423 8.52ZM314.41 9.32C314.41 10.088 314.592 10.76 314.954 11.336C315.317 11.912 315.818 12.36 316.458 12.68C317.098 13 317.818 13.16 318.618 13.16C319.418 13.16 320.133 13 320.762 12.68C321.402 12.36 321.904 11.912 322.266 11.336C322.64 10.76 322.826 10.088 322.826 9.32C322.826 8.54133 322.64 7.864 322.266 7.288C321.904 6.712 321.402 6.264 320.762 5.944C320.133 5.624 319.418 5.464 318.618 5.464C317.818 5.464 317.098 5.624 316.458 5.944C315.818 6.264 315.317 6.712 314.954 7.288C314.592 7.864 314.41 8.54133 314.41 9.32ZM316.89 9.32C316.89 8.936 316.97 8.60533 317.13 8.328C317.29 8.05067 317.498 7.83733 317.754 7.688C318.01 7.53867 318.298 7.464 318.618 7.464C318.928 7.464 319.21 7.53867 319.466 7.688C319.733 7.83733 319.941 8.05067 320.09 8.328C320.25 8.60533 320.33 8.936 320.33 9.32C320.33 9.704 320.25 10.0347 320.09 10.312C319.941 10.5787 319.733 10.7867 319.466 10.936C319.21 11.0853 318.928 11.16 318.618 11.16C318.298 11.16 318.01 11.0853 317.754 10.936C317.498 10.7867 317.29 10.5787 317.13 10.312C316.97 10.0347 316.89 9.704 316.89 9.32ZM331.509 0.52H329.077V13H331.509V0.52ZM333.861 8.52V13H336.277V8.168C336.277 7.56 336.191 7.048 336.021 6.632C335.85 6.216 335.578 5.90133 335.205 5.688C334.842 5.47467 334.357 5.368 333.749 5.368C333.141 5.368 332.639 5.512 332.245 5.8C331.861 6.07733 331.573 6.456 331.381 6.936C331.189 7.40533 331.093 7.93333 331.093 8.52H331.509C331.509 8.232 331.562 7.992 331.669 7.8C331.775 7.59733 331.925 7.44267 332.117 7.336C332.309 7.21867 332.533 7.16 332.789 7.16C333.183 7.16 333.461 7.27733 333.621 7.512C333.781 7.74667 333.861 8.08267 333.861 8.52ZM340.058 10.696C340.058 10.5147 340.101 10.3653 340.186 10.248C340.272 10.12 340.4 10.024 340.57 9.96C340.741 9.896 340.97 9.864 341.258 9.864C341.632 9.864 341.984 9.91733 342.314 10.024C342.656 10.12 342.954 10.264 343.21 10.456V9.384C343.082 9.24533 342.89 9.112 342.634 8.984C342.378 8.856 342.069 8.74933 341.706 8.664C341.354 8.57867 340.954 8.536 340.506 8.536C339.589 8.536 338.88 8.744 338.378 9.16C337.877 9.56533 337.626 10.12 337.626 10.824C337.626 11.3253 337.744 11.752 337.978 12.104C338.224 12.456 338.544 12.7227 338.938 12.904C339.344 13.0747 339.781 13.16 340.25 13.16C340.72 13.16 341.157 13.08 341.562 12.92C341.968 12.7493 342.298 12.504 342.554 12.184C342.81 11.8533 342.938 11.4533 342.938 10.984L342.682 10.024C342.682 10.3653 342.608 10.6533 342.458 10.888C342.309 11.1227 342.117 11.2987 341.882 11.416C341.648 11.5333 341.392 11.592 341.114 11.592C340.922 11.592 340.746 11.56 340.586 11.496C340.426 11.4213 340.298 11.32 340.202 11.192C340.106 11.0533 340.058 10.888 340.058 10.696ZM338.986 7.896C339.093 7.832 339.264 7.752 339.498 7.656C339.733 7.54933 340.005 7.45867 340.314 7.384C340.634 7.30933 340.96 7.272 341.29 7.272C341.514 7.272 341.712 7.29333 341.882 7.336C342.064 7.37867 342.213 7.448 342.33 7.544C342.448 7.64 342.533 7.75733 342.586 7.896C342.65 8.024 342.682 8.17867 342.682 8.36V13H345.002V7.816C345.002 7.304 344.853 6.872 344.554 6.52C344.256 6.168 343.85 5.90133 343.338 5.72C342.826 5.528 342.245 5.432 341.594 5.432C340.901 5.432 340.261 5.52267 339.674 5.704C339.088 5.88533 338.586 6.07733 338.17 6.28L338.986 7.896ZM351.595 8.52V13H354.107V8.264C354.107 7.37867 353.899 6.69067 353.483 6.2C353.067 5.70933 352.401 5.464 351.483 5.464C350.939 5.464 350.481 5.576 350.107 5.8C349.745 6.024 349.457 6.33867 349.243 6.744V5.64H346.811V13H349.243V8.52C349.243 8.232 349.297 7.98667 349.403 7.784C349.51 7.58133 349.659 7.42667 349.851 7.32C350.043 7.21333 350.267 7.16 350.523 7.16C350.907 7.16 351.179 7.27733 351.339 7.512C351.51 7.74667 351.595 8.08267 351.595 8.52ZM40.7104 32.32C40.7104 31.9573 40.7957 31.632 40.9664 31.344C41.137 31.056 41.3717 30.8267 41.6704 30.656C41.9797 30.4853 42.3104 30.4 42.6624 30.4C42.929 30.4 43.201 30.4427 43.4784 30.528C43.7557 30.6133 44.0117 30.736 44.2464 30.896C44.4917 31.056 44.689 31.2533 44.8384 31.488V29.12C44.5824 28.9387 44.2624 28.7893 43.8784 28.672C43.4944 28.544 43.025 28.48 42.4704 28.48C41.6597 28.48 40.929 28.64 40.2784 28.96C39.6384 29.28 39.1317 29.728 38.7584 30.304C38.3957 30.8693 38.2144 31.5413 38.2144 32.32C38.2144 33.088 38.3957 33.76 38.7584 34.336C39.1317 34.912 39.6384 35.36 40.2784 35.68C40.929 36 41.6597 36.16 42.4704 36.16C43.025 36.16 43.4944 36.1013 43.8784 35.984C44.2624 35.856 44.5824 35.6907 44.8384 35.488V33.136C44.689 33.3707 44.497 33.568 44.2624 33.728C44.0384 33.888 43.7877 34.016 43.5104 34.112C43.2437 34.1973 42.961 34.24 42.6624 34.24C42.3104 34.24 41.9797 34.16 41.6704 34C41.3717 33.84 41.137 33.6213 40.9664 33.344C40.7957 33.056 40.7104 32.7147 40.7104 32.32ZM46.1526 32.32C46.1526 33.088 46.334 33.76 46.6966 34.336C47.0593 34.912 47.5606 35.36 48.2006 35.68C48.8406 36 49.5606 36.16 50.3606 36.16C51.1606 36.16 51.8753 36 52.5046 35.68C53.1446 35.36 53.646 34.912 54.0086 34.336C54.382 33.76 54.5686 33.088 54.5686 32.32C54.5686 31.5413 54.382 30.864 54.0086 30.288C53.646 29.712 53.1446 29.264 52.5046 28.944C51.8753 28.624 51.1606 28.464 50.3606 28.464C49.5606 28.464 48.8406 28.624 48.2006 28.944C47.5606 29.264 47.0593 29.712 46.6966 30.288C46.334 30.864 46.1526 31.5413 46.1526 32.32ZM48.6326 32.32C48.6326 31.936 48.7126 31.6053 48.8726 31.328C49.0326 31.0507 49.2406 30.8373 49.4966 30.688C49.7526 30.5387 50.0406 30.464 50.3606 30.464C50.67 30.464 50.9526 30.5387 51.2086 30.688C51.4753 30.8373 51.6833 31.0507 51.8326 31.328C51.9926 31.6053 52.0726 31.936 52.0726 32.32C52.0726 32.704 51.9926 33.0347 51.8326 33.312C51.6833 33.5787 51.4753 33.7867 51.2086 33.936C50.9526 34.0853 50.67 34.16 50.3606 34.16C50.0406 34.16 49.7526 34.0853 49.4966 33.936C49.2406 33.7867 49.0326 33.5787 48.8726 33.312C48.7126 33.0347 48.6326 32.704 48.6326 32.32ZM60.8061 31.52V36H63.3181V31.264C63.3181 30.3787 63.1101 29.6907 62.6941 29.2C62.2781 28.7093 61.6115 28.464 60.6941 28.464C60.1501 28.464 59.6915 28.576 59.3181 28.8C58.9555 29.024 58.6675 29.3387 58.4541 29.744V28.64H56.0221V36H58.4541V31.52C58.4541 31.232 58.5075 30.9867 58.6141 30.784C58.7208 30.5813 58.8701 30.4267 59.0621 30.32C59.2541 30.2133 59.4781 30.16 59.7341 30.16C60.1181 30.16 60.3901 30.2773 60.5501 30.512C60.7208 30.7467 60.8061 31.0827 60.8061 31.52ZM64.7933 32.32C64.7933 33.088 64.9746 33.76 65.3372 34.336C65.6999 34.912 66.2013 35.36 66.8413 35.68C67.4813 36 68.2013 36.16 69.0013 36.16C69.8013 36.16 70.5159 36 71.1453 35.68C71.7853 35.36 72.2866 34.912 72.6493 34.336C73.0226 33.76 73.2093 33.088 73.2093 32.32C73.2093 31.5413 73.0226 30.864 72.6493 30.288C72.2866 29.712 71.7853 29.264 71.1453 28.944C70.5159 28.624 69.8013 28.464 69.0013 28.464C68.2013 28.464 67.4813 28.624 66.8413 28.944C66.2013 29.264 65.6999 29.712 65.3372 30.288C64.9746 30.864 64.7933 31.5413 64.7933 32.32ZM67.2733 32.32C67.2733 31.936 67.3533 31.6053 67.5133 31.328C67.6733 31.0507 67.8813 30.8373 68.1373 30.688C68.3933 30.5387 68.6813 30.464 69.0013 30.464C69.3106 30.464 69.5933 30.5387 69.8493 30.688C70.1159 30.8373 70.3239 31.0507 70.4733 31.328C70.6333 31.6053 70.7133 31.936 70.7133 32.32C70.7133 32.704 70.6333 33.0347 70.4733 33.312C70.3239 33.5787 70.1159 33.7867 69.8493 33.936C69.5933 34.0853 69.3106 34.16 69.0013 34.16C68.6813 34.16 68.3933 34.0853 68.1373 33.936C67.8813 33.7867 67.6733 33.5787 67.5133 33.312C67.3533 33.0347 67.2733 32.704 67.2733 32.32ZM76.6948 32.32C76.6948 31.9573 76.7801 31.632 76.9508 31.344C77.1214 31.056 77.3561 30.8267 77.6548 30.656C77.9641 30.4853 78.2948 30.4 78.6468 30.4C78.9134 30.4 79.1854 30.4427 79.4628 30.528C79.7401 30.6133 79.9961 30.736 80.2308 30.896C80.4761 31.056 80.6734 31.2533 80.8228 31.488V29.12C80.5668 28.9387 80.2468 28.7893 79.8628 28.672C79.4788 28.544 79.0094 28.48 78.4548 28.48C77.6441 28.48 76.9134 28.64 76.2628 28.96C75.6228 29.28 75.1161 29.728 74.7428 30.304C74.3801 30.8693 74.1988 31.5413 74.1988 32.32C74.1988 33.088 74.3801 33.76 74.7428 34.336C75.1161 34.912 75.6228 35.36 76.2628 35.68C76.9134 36 77.6441 36.16 78.4548 36.16C79.0094 36.16 79.4788 36.1013 79.8628 35.984C80.2468 35.856 80.5668 35.6907 80.8228 35.488V33.136C80.6734 33.3707 80.4814 33.568 80.2468 33.728C80.0228 33.888 79.7721 34.016 79.4948 34.112C79.2281 34.1973 78.9454 34.24 78.6468 34.24C78.2948 34.24 77.9641 34.16 77.6548 34C77.3561 33.84 77.1214 33.6213 76.9508 33.344C76.7801 33.056 76.6948 32.7147 76.6948 32.32ZM82.425 25.872C82.425 26.256 82.5637 26.5707 82.841 26.816C83.1183 27.0613 83.449 27.184 83.833 27.184C84.2277 27.184 84.5583 27.0613 84.825 26.816C85.1023 26.5707 85.241 26.256 85.241 25.872C85.241 25.488 85.1023 25.1787 84.825 24.944C84.5583 24.6987 84.2277 24.576 83.833 24.576C83.449 24.576 83.1183 24.6987 82.841 24.944C82.5637 25.1787 82.425 25.488 82.425 25.872ZM82.665 28.64V36H85.001V28.64H82.665ZM92.5749 23.52V36H94.9909V23.52H92.5749ZM86.5589 32.32C86.5589 33.1413 86.7242 33.84 87.0549 34.416C87.3962 34.9813 87.8335 35.4133 88.3669 35.712C88.9002 36.0107 89.4655 36.16 90.0629 36.16C90.6815 36.16 91.2255 36.0053 91.6949 35.696C92.1749 35.3867 92.5535 34.944 92.8309 34.368C93.1082 33.792 93.2469 33.1093 93.2469 32.32C93.2469 31.52 93.1082 30.8373 92.8309 30.272C92.5535 29.696 92.1749 29.2533 91.6949 28.944C91.2255 28.6347 90.6815 28.48 90.0629 28.48C89.4655 28.48 88.9002 28.6293 88.3669 28.928C87.8335 29.2267 87.3962 29.6587 87.0549 30.224C86.7242 30.7893 86.5589 31.488 86.5589 32.32ZM89.1029 32.32C89.1029 31.936 89.1829 31.6053 89.3429 31.328C89.5029 31.04 89.7162 30.8213 89.9829 30.672C90.2495 30.512 90.5429 30.432 90.8629 30.432C91.1402 30.432 91.4069 30.5067 91.6629 30.656C91.9295 30.8053 92.1482 31.024 92.3189 31.312C92.4895 31.5893 92.5749 31.9253 92.5749 32.32C92.5749 32.7147 92.4895 33.056 92.3189 33.344C92.1482 33.6213 91.9295 33.8347 91.6629 33.984C91.4069 34.1333 91.1402 34.208 90.8629 34.208C90.5429 34.208 90.2495 34.1333 89.9829 33.984C89.7162 33.824 89.5029 33.6053 89.3429 33.328C89.1829 33.04 89.1029 32.704 89.1029 32.32ZM96.4339 32.32C96.4339 33.088 96.6152 33.76 96.9779 34.336C97.3405 34.912 97.8419 35.36 98.4819 35.68C99.1219 36 99.8419 36.16 100.642 36.16C101.442 36.16 102.157 36 102.786 35.68C103.426 35.36 103.927 34.912 104.29 34.336C104.663 33.76 104.85 33.088 104.85 32.32C104.85 31.5413 104.663 30.864 104.29 30.288C103.927 29.712 103.426 29.264 102.786 28.944C102.157 28.624 101.442 28.464 100.642 28.464C99.8419 28.464 99.1219 28.624 98.4819 28.944C97.8419 29.264 97.3405 29.712 96.9779 30.288C96.6152 30.864 96.4339 31.5413 96.4339 32.32ZM98.9139 32.32C98.9139 31.936 98.9939 31.6053 99.1539 31.328C99.3139 31.0507 99.5219 30.8373 99.7779 30.688C100.034 30.5387 100.322 30.464 100.642 30.464C100.951 30.464 101.234 30.5387 101.49 30.688C101.757 30.8373 101.965 31.0507 102.114 31.328C102.274 31.6053 102.354 31.936 102.354 32.32C102.354 32.704 102.274 33.0347 102.114 33.312C101.965 33.5787 101.757 33.7867 101.49 33.936C101.234 34.0853 100.951 34.16 100.642 34.16C100.322 34.16 100.034 34.0853 99.7779 33.936C99.5219 33.7867 99.3139 33.5787 99.1539 33.312C98.9939 33.0347 98.9139 32.704 98.9139 32.32ZM114.844 36.16C115.783 36.16 116.578 35.9787 117.228 35.616C117.89 35.2533 118.412 34.7093 118.796 33.984L116.636 33.456C116.455 33.776 116.21 34.016 115.9 34.176C115.602 34.336 115.239 34.416 114.812 34.416C114.439 34.416 114.124 34.336 113.868 34.176C113.612 34.0053 113.42 33.76 113.292 33.44C113.164 33.12 113.1 32.736 113.1 32.288C113.111 31.7973 113.175 31.392 113.292 31.072C113.42 30.7413 113.607 30.496 113.852 30.336C114.098 30.176 114.402 30.096 114.764 30.096C115.052 30.096 115.303 30.16 115.516 30.288C115.73 30.416 115.895 30.5973 116.012 30.832C116.13 31.0667 116.188 31.344 116.188 31.664C116.188 31.7387 116.167 31.8347 116.124 31.952C116.092 32.0587 116.05 32.1493 115.996 32.224L116.572 31.488H112.028V32.832H118.748C118.77 32.7573 118.78 32.6667 118.78 32.56C118.78 32.4427 118.78 32.3253 118.78 32.208C118.78 31.4187 118.626 30.7467 118.316 30.192C118.007 29.6373 117.559 29.216 116.972 28.928C116.386 28.6293 115.666 28.48 114.812 28.48C113.959 28.48 113.218 28.6347 112.588 28.944C111.97 29.2533 111.495 29.696 111.164 30.272C110.834 30.848 110.668 31.5307 110.668 32.32C110.668 33.0987 110.839 33.776 111.18 34.352C111.522 34.928 112.002 35.376 112.62 35.696C113.25 36.0053 113.991 36.16 114.844 36.16ZM120.272 23.52V36H122.704V23.52H120.272ZM131.254 33.696C131.254 33.5147 131.296 33.3653 131.382 33.248C131.467 33.12 131.595 33.024 131.766 32.96C131.936 32.896 132.166 32.864 132.454 32.864C132.827 32.864 133.179 32.9173 133.51 33.024C133.851 33.12 134.15 33.264 134.406 33.456V32.384C134.278 32.2453 134.086 32.112 133.83 31.984C133.574 31.856 133.264 31.7493 132.902 31.664C132.55 31.5787 132.15 31.536 131.702 31.536C130.784 31.536 130.075 31.744 129.574 32.16C129.072 32.5653 128.822 33.12 128.822 33.824C128.822 34.3253 128.939 34.752 129.174 35.104C129.419 35.456 129.739 35.7227 130.134 35.904C130.539 36.0747 130.976 36.16 131.446 36.16C131.915 36.16 132.352 36.08 132.758 35.92C133.163 35.7493 133.494 35.504 133.75 35.184C134.006 34.8533 134.134 34.4533 134.134 33.984L133.878 33.024C133.878 33.3653 133.803 33.6533 133.654 33.888C133.504 34.1227 133.312 34.2987 133.078 34.416C132.843 34.5333 132.587 34.592 132.31 34.592C132.118 34.592 131.942 34.56 131.782 34.496C131.622 34.4213 131.494 34.32 131.398 34.192C131.302 34.0533 131.254 33.888 131.254 33.696ZM130.182 30.896C130.288 30.832 130.459 30.752 130.694 30.656C130.928 30.5493 131.2 30.4587 131.51 30.384C131.83 30.3093 132.155 30.272 132.486 30.272C132.71 30.272 132.907 30.2933 133.078 30.336C133.259 30.3787 133.408 30.448 133.526 30.544C133.643 30.64 133.728 30.7573 133.782 30.896C133.846 31.024 133.878 31.1787 133.878 31.36V36H136.198V30.816C136.198 30.304 136.048 29.872 135.75 29.52C135.451 29.168 135.046 28.9013 134.534 28.72C134.022 28.528 133.44 28.432 132.79 28.432C132.096 28.432 131.456 28.5227 130.87 28.704C130.283 28.8853 129.782 29.0773 129.366 29.28L130.182 30.896ZM140.391 28.64H138.007V36H140.391V28.64ZM142.519 31.136L143.559 29.072C143.431 28.88 143.244 28.7307 142.999 28.624C142.753 28.5173 142.497 28.464 142.231 28.464C141.825 28.464 141.436 28.5973 141.062 28.864C140.689 29.1307 140.385 29.4933 140.151 29.952C139.927 30.4107 139.815 30.9333 139.815 31.52L140.391 32.368C140.391 32.016 140.439 31.7173 140.535 31.472C140.631 31.2267 140.769 31.04 140.951 30.912C141.132 30.784 141.34 30.72 141.575 30.72C141.788 30.72 141.964 30.7573 142.103 30.832C142.252 30.9067 142.391 31.008 142.519 31.136ZM143.721 28.64V30.64H148.649V28.64H143.721ZM145.017 26.08V36H147.337V26.08H145.017ZM153.422 36.16C154.361 36.16 155.156 35.9787 155.806 35.616C156.468 35.2533 156.99 34.7093 157.374 33.984L155.214 33.456C155.033 33.776 154.788 34.016 154.478 34.176C154.18 34.336 153.817 34.416 153.39 34.416C153.017 34.416 152.702 34.336 152.446 34.176C152.19 34.0053 151.998 33.76 151.87 33.44C151.742 33.12 151.678 32.736 151.678 32.288C151.689 31.7973 151.753 31.392 151.87 31.072C151.998 30.7413 152.185 30.496 152.43 30.336C152.676 30.176 152.98 30.096 153.342 30.096C153.63 30.096 153.881 30.16 154.094 30.288C154.308 30.416 154.473 30.5973 154.59 30.832C154.708 31.0667 154.766 31.344 154.766 31.664C154.766 31.7387 154.745 31.8347 154.702 31.952C154.67 32.0587 154.628 32.1493 154.574 32.224L155.15 31.488H150.606V32.832H157.326C157.348 32.7573 157.358 32.6667 157.358 32.56C157.358 32.4427 157.358 32.3253 157.358 32.208C157.358 31.4187 157.204 30.7467 156.894 30.192C156.585 29.6373 156.137 29.216 155.55 28.928C154.964 28.6293 154.244 28.48 153.39 28.48C152.537 28.48 151.796 28.6347 151.166 28.944C150.548 29.2533 150.073 29.696 149.742 30.272C149.412 30.848 149.246 31.5307 149.246 32.32C149.246 33.0987 149.417 33.776 149.758 34.352C150.1 34.928 150.58 35.376 151.198 35.696C151.828 36.0053 152.569 36.16 153.422 36.16ZM169.231 23.52V36H171.647V23.52H169.231ZM163.215 32.32C163.215 33.1413 163.38 33.84 163.711 34.416C164.052 34.9813 164.49 35.4133 165.023 35.712C165.556 36.0107 166.122 36.16 166.719 36.16C167.338 36.16 167.882 36.0053 168.351 35.696C168.831 35.3867 169.21 34.944 169.487 34.368C169.764 33.792 169.903 33.1093 169.903 32.32C169.903 31.52 169.764 30.8373 169.487 30.272C169.21 29.696 168.831 29.2533 168.351 28.944C167.882 28.6347 167.338 28.48 166.719 28.48C166.122 28.48 165.556 28.6293 165.023 28.928C164.49 29.2267 164.052 29.6587 163.711 30.224C163.38 30.7893 163.215 31.488 163.215 32.32ZM165.759 32.32C165.759 31.936 165.839 31.6053 165.999 31.328C166.159 31.04 166.372 30.8213 166.639 30.672C166.906 30.512 167.199 30.432 167.519 30.432C167.796 30.432 168.063 30.5067 168.319 30.656C168.586 30.8053 168.804 31.024 168.975 31.312C169.146 31.5893 169.231 31.9253 169.231 32.32C169.231 32.7147 169.146 33.056 168.975 33.344C168.804 33.6213 168.586 33.8347 168.319 33.984C168.063 34.1333 167.796 34.208 167.519 34.208C167.199 34.208 166.906 34.1333 166.639 33.984C166.372 33.824 166.159 33.6053 165.999 33.328C165.839 33.04 165.759 32.704 165.759 32.32ZM177.266 36.16C178.205 36.16 178.999 35.9787 179.65 35.616C180.311 35.2533 180.834 34.7093 181.218 33.984L179.058 33.456C178.877 33.776 178.631 34.016 178.322 34.176C178.023 34.336 177.661 34.416 177.234 34.416C176.861 34.416 176.546 34.336 176.29 34.176C176.034 34.0053 175.842 33.76 175.714 33.44C175.586 33.12 175.522 32.736 175.522 32.288C175.533 31.7973 175.597 31.392 175.714 31.072C175.842 30.7413 176.029 30.496 176.274 30.336C176.519 30.176 176.823 30.096 177.186 30.096C177.474 30.096 177.725 30.16 177.938 30.288C178.151 30.416 178.317 30.5973 178.434 30.832C178.551 31.0667 178.61 31.344 178.61 31.664C178.61 31.7387 178.589 31.8347 178.546 31.952C178.514 32.0587 178.471 32.1493 178.418 32.224L178.994 31.488H174.45V32.832H181.17C181.191 32.7573 181.202 32.6667 181.202 32.56C181.202 32.4427 181.202 32.3253 181.202 32.208C181.202 31.4187 181.047 30.7467 180.738 30.192C180.429 29.6373 179.981 29.216 179.394 28.928C178.807 28.6293 178.087 28.48 177.234 28.48C176.381 28.48 175.639 28.6347 175.01 28.944C174.391 29.2533 173.917 29.696 173.586 30.272C173.255 30.848 173.09 31.5307 173.09 32.32C173.09 33.0987 173.261 33.776 173.602 34.352C173.943 34.928 174.423 35.376 175.042 35.696C175.671 36.0053 176.413 36.16 177.266 36.16ZM190.019 33.12V28.64H187.491V33.376C187.491 34.2507 187.699 34.9387 188.115 35.44C188.542 35.9307 189.214 36.176 190.131 36.176C190.675 36.176 191.128 36.064 191.491 35.84C191.854 35.6053 192.147 35.2907 192.371 34.896V36H194.787V28.64H192.371V33.12C192.371 33.408 192.318 33.6533 192.211 33.856C192.104 34.0587 191.955 34.2133 191.763 34.32C191.582 34.4267 191.358 34.48 191.091 34.48C190.696 34.48 190.419 34.3627 190.259 34.128C190.099 33.8827 190.019 33.5467 190.019 33.12ZM201.478 31.52V36H203.99V31.264C203.99 30.3787 203.782 29.6907 203.366 29.2C202.95 28.7093 202.283 28.464 201.366 28.464C200.822 28.464 200.363 28.576 199.99 28.8C199.627 29.024 199.339 29.3387 199.126 29.744V28.64H196.694V36H199.126V31.52C199.126 31.232 199.179 30.9867 199.286 30.784C199.393 30.5813 199.542 30.4267 199.734 30.32C199.926 30.2133 200.15 30.16 200.406 30.16C200.79 30.16 201.062 30.2773 201.222 30.512C201.393 30.7467 201.478 31.0827 201.478 31.52ZM213.094 23.52H210.678V36H213.094V23.52ZM219.11 32.32C219.11 31.488 218.939 30.7893 218.598 30.224C218.267 29.6587 217.835 29.2267 217.302 28.928C216.779 28.6293 216.214 28.48 215.606 28.48C214.998 28.48 214.454 28.6347 213.974 28.944C213.494 29.2533 213.115 29.696 212.838 30.272C212.561 30.8373 212.422 31.52 212.422 32.32C212.422 33.1093 212.561 33.792 212.838 34.368C213.115 34.944 213.494 35.3867 213.974 35.696C214.454 36.0053 214.998 36.16 215.606 36.16C216.214 36.16 216.779 36.0107 217.302 35.712C217.835 35.4133 218.267 34.9813 218.598 34.416C218.939 33.84 219.11 33.1413 219.11 32.32ZM216.566 32.32C216.566 32.704 216.486 33.04 216.326 33.328C216.166 33.6053 215.953 33.824 215.686 33.984C215.419 34.1333 215.126 34.208 214.806 34.208C214.529 34.208 214.257 34.1333 213.99 33.984C213.734 33.8347 213.521 33.6213 213.35 33.344C213.179 33.056 213.094 32.7147 213.094 32.32C213.094 31.9253 213.179 31.5893 213.35 31.312C213.521 31.024 213.734 30.8053 213.99 30.656C214.257 30.5067 214.529 30.432 214.806 30.432C215.126 30.432 215.419 30.512 215.686 30.672C215.953 30.8213 216.166 31.04 216.326 31.328C216.486 31.6053 216.566 31.936 216.566 32.32ZM223.097 33.12V28.64H220.569V33.376C220.569 34.2507 220.777 34.9387 221.193 35.44C221.62 35.9307 222.292 36.176 223.209 36.176C223.753 36.176 224.206 36.064 224.569 35.84C224.932 35.6053 225.225 35.2907 225.449 34.896V36H227.865V28.64H225.449V33.12C225.449 33.408 225.396 33.6533 225.289 33.856C225.182 34.0587 225.033 34.2133 224.841 34.32C224.66 34.4267 224.436 34.48 224.169 34.48C223.774 34.48 223.497 34.3627 223.337 34.128C223.177 33.8827 223.097 33.5467 223.097 33.12ZM233.516 36.16C234.455 36.16 235.249 35.9787 235.9 35.616C236.561 35.2533 237.084 34.7093 237.468 33.984L235.308 33.456C235.127 33.776 234.881 34.016 234.572 34.176C234.273 34.336 233.911 34.416 233.484 34.416C233.111 34.416 232.796 34.336 232.54 34.176C232.284 34.0053 232.092 33.76 231.964 33.44C231.836 33.12 231.772 32.736 231.772 32.288C231.783 31.7973 231.847 31.392 231.964 31.072C232.092 30.7413 232.279 30.496 232.524 30.336C232.769 30.176 233.073 30.096 233.436 30.096C233.724 30.096 233.975 30.16 234.188 30.288C234.401 30.416 234.567 30.5973 234.684 30.832C234.801 31.0667 234.86 31.344 234.86 31.664C234.86 31.7387 234.839 31.8347 234.796 31.952C234.764 32.0587 234.721 32.1493 234.668 32.224L235.244 31.488H230.7V32.832H237.42C237.441 32.7573 237.452 32.6667 237.452 32.56C237.452 32.4427 237.452 32.3253 237.452 32.208C237.452 31.4187 237.297 30.7467 236.988 30.192C236.679 29.6373 236.231 29.216 235.644 28.928C235.057 28.6293 234.337 28.48 233.484 28.48C232.631 28.48 231.889 28.6347 231.26 28.944C230.641 29.2533 230.167 29.696 229.836 30.272C229.505 30.848 229.34 31.5307 229.34 32.32C229.34 33.0987 229.511 33.776 229.852 34.352C230.193 34.928 230.673 35.376 231.292 35.696C231.921 36.0053 232.663 36.16 233.516 36.16ZM243.728 31.52V36H246.24V31.264C246.24 30.3787 246.032 29.6907 245.616 29.2C245.2 28.7093 244.533 28.464 243.616 28.464C243.072 28.464 242.613 28.576 242.24 28.8C241.877 29.024 241.589 29.3387 241.376 29.744V28.64H238.944V36H241.376V31.52C241.376 31.232 241.429 30.9867 241.536 30.784C241.643 30.5813 241.792 30.4267 241.984 30.32C242.176 30.2133 242.4 30.16 242.656 30.16C243.04 30.16 243.312 30.2773 243.472 30.512C243.643 30.7467 243.728 31.0827 243.728 31.52ZM255.344 23.52H252.928V36H255.344V23.52ZM261.36 32.32C261.36 31.488 261.189 30.7893 260.848 30.224C260.517 29.6587 260.085 29.2267 259.552 28.928C259.029 28.6293 258.464 28.48 257.856 28.48C257.248 28.48 256.704 28.6347 256.224 28.944C255.744 29.2533 255.365 29.696 255.088 30.272C254.811 30.8373 254.672 31.52 254.672 32.32C254.672 33.1093 254.811 33.792 255.088 34.368C255.365 34.944 255.744 35.3867 256.224 35.696C256.704 36.0053 257.248 36.16 257.856 36.16C258.464 36.16 259.029 36.0107 259.552 35.712C260.085 35.4133 260.517 34.9813 260.848 34.416C261.189 33.84 261.36 33.1413 261.36 32.32ZM258.816 32.32C258.816 32.704 258.736 33.04 258.576 33.328C258.416 33.6053 258.203 33.824 257.936 33.984C257.669 34.1333 257.376 34.208 257.056 34.208C256.779 34.208 256.507 34.1333 256.24 33.984C255.984 33.8347 255.771 33.6213 255.6 33.344C255.429 33.056 255.344 32.7147 255.344 32.32C255.344 31.9253 255.429 31.5893 255.6 31.312C255.771 31.024 255.984 30.8053 256.24 30.656C256.507 30.5067 256.779 30.432 257.056 30.432C257.376 30.432 257.669 30.512 257.936 30.672C258.203 30.8213 258.416 31.04 258.576 31.328C258.736 31.6053 258.816 31.936 258.816 32.32ZM264.691 33.696C264.691 33.5147 264.734 33.3653 264.819 33.248C264.904 33.12 265.032 33.024 265.203 32.96C265.374 32.896 265.603 32.864 265.891 32.864C266.264 32.864 266.616 32.9173 266.947 33.024C267.288 33.12 267.587 33.264 267.843 33.456V32.384C267.715 32.2453 267.523 32.112 267.267 31.984C267.011 31.856 266.702 31.7493 266.339 31.664C265.987 31.5787 265.587 31.536 265.139 31.536C264.222 31.536 263.512 31.744 263.011 32.16C262.51 32.5653 262.259 33.12 262.259 33.824C262.259 34.3253 262.376 34.752 262.611 35.104C262.856 35.456 263.176 35.7227 263.571 35.904C263.976 36.0747 264.414 36.16 264.883 36.16C265.352 36.16 265.79 36.08 266.195 35.92C266.6 35.7493 266.931 35.504 267.187 35.184C267.443 34.8533 267.571 34.4533 267.571 33.984L267.315 33.024C267.315 33.3653 267.24 33.6533 267.091 33.888C266.942 34.1227 266.75 34.2987 266.515 34.416C266.28 34.5333 266.024 34.592 265.747 34.592C265.555 34.592 265.379 34.56 265.219 34.496C265.059 34.4213 264.931 34.32 264.835 34.192C264.739 34.0533 264.691 33.888 264.691 33.696ZM263.619 30.896C263.726 30.832 263.896 30.752 264.131 30.656C264.366 30.5493 264.638 30.4587 264.947 30.384C265.267 30.3093 265.592 30.272 265.923 30.272C266.147 30.272 266.344 30.2933 266.515 30.336C266.696 30.3787 266.846 30.448 266.963 30.544C267.08 30.64 267.166 30.7573 267.219 30.896C267.283 31.024 267.315 31.1787 267.315 31.36V36H269.635V30.816C269.635 30.304 269.486 29.872 269.187 29.52C268.888 29.168 268.483 28.9013 267.971 28.72C267.459 28.528 266.878 28.432 266.227 28.432C265.534 28.432 264.894 28.5227 264.307 28.704C263.72 28.8853 263.219 29.0773 262.803 29.28L263.619 30.896ZM273.828 28.64H271.444V36H273.828V28.64ZM275.956 31.136L276.996 29.072C276.868 28.88 276.681 28.7307 276.436 28.624C276.191 28.5173 275.935 28.464 275.668 28.464C275.263 28.464 274.873 28.5973 274.5 28.864C274.127 29.1307 273.823 29.4933 273.588 29.952C273.364 30.4107 273.252 30.9333 273.252 31.52L273.828 32.368C273.828 32.016 273.876 31.7173 273.972 31.472C274.068 31.2267 274.207 31.04 274.388 30.912C274.569 30.784 274.777 30.72 275.012 30.72C275.225 30.72 275.401 30.7573 275.54 30.832C275.689 30.9067 275.828 31.008 275.956 31.136ZM280.422 23.52H278.006V36H280.422V23.52ZM286.438 32.32C286.438 31.488 286.267 30.7893 285.926 30.224C285.595 29.6587 285.163 29.2267 284.63 28.928C284.107 28.6293 283.542 28.48 282.934 28.48C282.326 28.48 281.782 28.6347 281.302 28.944C280.822 29.2533 280.443 29.696 280.166 30.272C279.889 30.8373 279.75 31.52 279.75 32.32C279.75 33.1093 279.889 33.792 280.166 34.368C280.443 34.944 280.822 35.3867 281.302 35.696C281.782 36.0053 282.326 36.16 282.934 36.16C283.542 36.16 284.107 36.0107 284.63 35.712C285.163 35.4133 285.595 34.9813 285.926 34.416C286.267 33.84 286.438 33.1413 286.438 32.32ZM283.894 32.32C283.894 32.704 283.814 33.04 283.654 33.328C283.494 33.6053 283.281 33.824 283.014 33.984C282.747 34.1333 282.454 34.208 282.134 34.208C281.857 34.208 281.585 34.1333 281.318 33.984C281.062 33.8347 280.849 33.6213 280.678 33.344C280.507 33.056 280.422 32.7147 280.422 32.32C280.422 31.9253 280.507 31.5893 280.678 31.312C280.849 31.024 281.062 30.8053 281.318 30.656C281.585 30.5067 281.857 30.432 282.134 30.432C282.454 30.432 282.747 30.512 283.014 30.672C283.281 30.8213 283.494 31.04 283.654 31.328C283.814 31.6053 283.894 31.936 283.894 32.32ZM291.641 36.16C292.58 36.16 293.374 35.9787 294.025 35.616C294.686 35.2533 295.209 34.7093 295.593 33.984L293.433 33.456C293.252 33.776 293.006 34.016 292.697 34.176C292.398 34.336 292.036 34.416 291.609 34.416C291.236 34.416 290.921 34.336 290.665 34.176C290.409 34.0053 290.217 33.76 290.089 33.44C289.961 33.12 289.897 32.736 289.897 32.288C289.908 31.7973 289.972 31.392 290.089 31.072C290.217 30.7413 290.404 30.496 290.649 30.336C290.894 30.176 291.198 30.096 291.561 30.096C291.849 30.096 292.1 30.16 292.313 30.288C292.526 30.416 292.692 30.5973 292.809 30.832C292.926 31.0667 292.985 31.344 292.985 31.664C292.985 31.7387 292.964 31.8347 292.921 31.952C292.889 32.0587 292.846 32.1493 292.793 32.224L293.369 31.488H288.825V32.832H295.545C295.566 32.7573 295.577 32.6667 295.577 32.56C295.577 32.4427 295.577 32.3253 295.577 32.208C295.577 31.4187 295.422 30.7467 295.113 30.192C294.804 29.6373 294.356 29.216 293.769 28.928C293.182 28.6293 292.462 28.48 291.609 28.48C290.756 28.48 290.014 28.6347 289.385 28.944C288.766 29.2533 288.292 29.696 287.961 30.272C287.63 30.848 287.465 31.5307 287.465 32.32C287.465 33.0987 287.636 33.776 287.977 34.352C288.318 34.928 288.798 35.376 289.417 35.696C290.046 36.0053 290.788 36.16 291.641 36.16ZM299.453 28.64H297.069V36H299.453V28.64ZM301.581 31.136L302.621 29.072C302.493 28.88 302.306 28.7307 302.061 28.624C301.816 28.5173 301.56 28.464 301.293 28.464C300.888 28.464 300.498 28.5973 300.125 28.864C299.752 29.1307 299.448 29.4933 299.213 29.952C298.989 30.4107 298.877 30.9333 298.877 31.52L299.453 32.368C299.453 32.016 299.501 31.7173 299.597 31.472C299.693 31.2267 299.832 31.04 300.013 30.912C300.194 30.784 300.402 30.72 300.637 30.72C300.85 30.72 301.026 30.7573 301.165 30.832C301.314 30.9067 301.453 31.008 301.581 31.136ZM302.981 32.32C302.981 33.088 303.162 33.76 303.525 34.336C303.887 34.912 304.389 35.36 305.029 35.68C305.669 36 306.389 36.16 307.189 36.16C307.989 36.16 308.703 36 309.333 35.68C309.973 35.36 310.474 34.912 310.837 34.336C311.21 33.76 311.397 33.088 311.397 32.32C311.397 31.5413 311.21 30.864 310.837 30.288C310.474 29.712 309.973 29.264 309.333 28.944C308.703 28.624 307.989 28.464 307.189 28.464C306.389 28.464 305.669 28.624 305.029 28.944C304.389 29.264 303.887 29.712 303.525 30.288C303.162 30.864 302.981 31.5413 302.981 32.32ZM305.461 32.32C305.461 31.936 305.541 31.6053 305.701 31.328C305.861 31.0507 306.069 30.8373 306.325 30.688C306.581 30.5387 306.869 30.464 307.189 30.464C307.498 30.464 307.781 30.5387 308.037 30.688C308.303 30.8373 308.511 31.0507 308.661 31.328C308.821 31.6053 308.901 31.936 308.901 32.32C308.901 32.704 308.821 33.0347 308.661 33.312C308.511 33.5787 308.303 33.7867 308.037 33.936C307.781 34.0853 307.498 34.16 307.189 34.16C306.869 34.16 306.581 34.0853 306.325 33.936C306.069 33.7867 305.861 33.5787 305.701 33.312C305.541 33.0347 305.461 32.704 305.461 32.32ZM312.181 34.912C312.181 35.3173 312.325 35.664 312.613 35.952C312.901 36.24 313.259 36.384 313.685 36.384C314.133 36.384 314.496 36.24 314.773 35.952C315.051 35.664 315.189 35.3173 315.189 34.912C315.189 34.5067 315.051 34.16 314.773 33.872C314.496 33.584 314.133 33.44 313.685 33.44C313.259 33.44 312.901 33.584 312.613 33.872C312.325 34.16 312.181 34.5067 312.181 34.912Z" fill="white"/>
</svg>
