<svg width="192" height="37" viewBox="0 0 192 37" fill="none" xmlns="http://www.w3.org/2000/svg">
<path d="M6.60181 8.928C6.95381 10.048 7.64181 11.088 8.66581 12.048C9.68981 13.008 10.8898 13.968 12.2658 14.928C13.6738 15.856 15.1138 16.864 16.5858 17.952C18.0898 19.04 19.4978 20.288 20.8098 21.696C22.1538 23.104 23.2418 24.752 24.0738 26.64C23.8818 27.888 23.4178 29.152 22.6818 30.432C21.9458 31.68 21.0658 32.816 20.0418 33.84C19.0178 34.864 17.9618 35.664 16.8738 36.24C15.7218 36.432 14.3938 36.56 12.8898 36.624C11.3858 36.72 9.81781 36.688 8.18581 36.528C6.58581 36.368 5.03381 36.048 3.52981 35.568C3.08181 35.216 2.55381 34.688 1.94581 33.984C1.33781 33.28 0.809813 32.624 0.361813 32.016L1.12981 24.624C1.73781 24.432 2.44181 24.304 3.24181 24.24C4.07381 24.176 4.80981 24.24 5.44981 24.432L5.88181 30.672C7.16181 30.864 8.55381 30.928 10.0578 30.864C11.5938 30.8 13.0978 30.624 14.5698 30.336C16.0738 30.016 17.3698 29.568 18.4578 28.992C17.8178 27.712 16.9058 26.544 15.7218 25.488C14.5378 24.4 13.2258 23.36 11.7858 22.368C10.3778 21.344 8.96981 20.304 7.56181 19.248C6.15381 18.192 4.87381 17.072 3.72181 15.888C2.60181 14.704 1.75381 13.376 1.17781 11.904C1.40181 10.656 1.78581 9.424 2.32981 8.208C2.90581 6.96 3.56181 5.84 4.29781 4.848C5.06581 3.824 5.81781 3.056 6.55381 2.544C11.1938 1.232 15.9138 1.056 20.7138 2.016C21.0338 2.208 21.3538 2.544 21.6738 3.024C21.9938 3.472 22.2978 3.952 22.5858 4.464C22.9058 4.976 23.1618 5.376 23.3538 5.664L22.6338 12.192C22.0258 12.416 21.3378 12.528 20.5698 12.528C19.8338 12.528 19.0978 12.448 18.3618 12.288L17.9298 7.104C16.8418 7.008 15.6258 7.008 14.2818 7.104C12.9378 7.168 11.5938 7.344 10.2498 7.632C8.90581 7.92 7.68981 8.352 6.60181 8.928ZM45.0206 28.464C45.2446 28.752 45.4846 29.312 45.7406 30.144C46.0286 30.976 46.1566 31.712 46.1246 32.352C44.7486 32.928 43.3086 33.504 41.8046 34.08C40.3006 34.624 38.8926 35.136 37.5806 35.616C36.3006 36.096 35.2446 36.48 34.4126 36.768C33.4206 36.512 32.3806 36.112 31.2926 35.568C30.2046 35.024 29.2126 34.384 28.3166 33.648C27.4206 32.88 26.7806 32.112 26.3966 31.344L27.0686 16.656C27.5166 15.856 28.1406 15.056 28.9406 14.256C29.7726 13.424 30.5886 12.672 31.3886 12C33.2446 11.584 35.0526 11.328 36.8126 11.232C38.6046 11.136 40.3166 11.216 41.9486 11.472C42.2366 11.632 42.6206 11.984 43.1006 12.528C43.6126 13.04 44.1086 13.568 44.5886 14.112C45.0686 14.656 45.3886 15.056 45.5486 15.312L45.3566 22.464C44.5246 23.072 43.4046 23.712 41.9966 24.384C40.5886 25.056 39.0366 25.712 37.3406 26.352C35.6446 26.96 33.9486 27.504 32.2526 27.984C32.2846 28.592 32.3326 29.184 32.3966 29.76C32.4606 30.336 32.5406 30.896 32.6366 31.44L45.0206 28.464ZM40.2206 16.416C39.0686 16.256 37.9486 16.208 36.8606 16.272C35.7726 16.336 34.6366 16.528 33.4526 16.848C33.1326 17.84 32.8766 18.912 32.6846 20.064C32.4926 21.216 32.3486 22.384 32.2526 23.568C33.6286 23.12 35.0686 22.544 36.5726 21.84C38.1086 21.104 39.5006 20.336 40.7486 19.536L40.2206 16.416ZM65.9084 11.232C66.6444 11.616 67.3484 12.336 68.0204 13.392C68.7244 14.416 69.2204 15.488 69.5084 16.608L69.0764 22.608C68.5324 22.992 67.8444 23.28 67.0124 23.472C66.1804 23.632 65.4124 23.728 64.7084 23.76L63.5564 22.656C63.7164 21.472 63.8124 20.432 63.8444 19.536C63.9084 18.608 63.8764 17.792 63.7484 17.088C62.7564 17.824 61.8284 18.896 60.9644 20.304C60.1324 21.68 59.3644 23.216 58.6604 24.912L58.8044 36C58.1004 36.192 57.2844 36.288 56.3564 36.288C55.4284 36.288 54.5964 36.192 53.8604 36C52.8684 34.944 52.0524 33.744 51.4124 32.4C51.6364 31.344 51.9564 30.224 52.3724 29.04C52.7884 27.824 53.2684 26.624 53.8124 25.44V23.712L53.2364 17.088L49.0604 18.144C48.8364 17.76 48.5644 17.232 48.2444 16.56C47.9244 15.856 47.7324 15.136 47.6684 14.4L54.1484 11.232C54.4684 11.264 54.9164 11.44 55.4924 11.76C56.1004 12.08 56.6924 12.432 57.2684 12.816C57.8764 13.168 58.3244 13.472 58.6124 13.728L58.4204 17.52C59.7324 15.696 61.0604 14.192 62.4044 13.008C63.7484 11.824 64.9164 11.232 65.9084 11.232ZM93.0029 11.904C93.3549 12.256 93.7069 12.72 94.0589 13.296C94.4109 13.84 94.7149 14.368 94.9709 14.88C95.2589 15.36 95.4189 15.728 95.4509 15.984C94.8109 20.08 93.7549 23.616 92.2829 26.592C90.8109 29.568 89.1469 31.92 87.2909 33.648C85.4669 35.344 83.6749 36.384 81.9149 36.768C81.4029 36.48 80.7629 36.016 79.9949 35.376C79.2589 34.736 78.5709 34.016 77.9309 33.216C77.2909 32.384 76.8269 31.6 76.5389 30.864L74.9069 17.424L71.4029 18.336C71.1149 17.952 70.8269 17.376 70.5389 16.608C70.2509 15.808 70.0749 15.04 70.0109 14.304L77.0669 11.232C77.8029 11.52 78.6189 12.096 79.5149 12.96C80.4429 13.792 81.1629 14.656 81.6749 15.552C81.1629 17.312 80.8909 19.12 80.8589 20.976C80.8269 22.832 80.9549 24.528 81.2429 26.064C81.5309 27.6 81.8509 28.816 82.2029 29.712C82.5869 30.608 82.9229 31.008 83.2109 30.912C84.1389 30.56 85.0509 29.744 85.9469 28.464C86.8749 27.184 87.7069 25.664 88.4429 23.904L86.6189 12.912C87.3229 12.592 88.2669 12.32 89.4509 12.096C90.6349 11.84 91.8189 11.776 93.0029 11.904ZM104.591 8.496C102.927 7.6 101.423 6.416 100.079 4.944C100.111 4.432 100.319 3.856 100.703 3.216C101.119 2.544 101.599 1.936 102.143 1.392C102.719 0.815999 103.263 0.463999 103.775 0.335999C104.287 0.335999 104.863 0.543999 105.503 0.959999C106.143 1.344 106.735 1.824 107.279 2.4C107.823 2.944 108.143 3.472 108.239 3.984C108.207 4.528 107.983 5.136 107.567 5.808C107.151 6.448 106.671 7.024 106.127 7.536C105.583 8.016 105.071 8.336 104.591 8.496ZM109.871 29.568C110.095 29.952 110.367 30.544 110.687 31.344C111.007 32.112 111.199 32.864 111.263 33.6L104.783 36.768C102.351 35.648 100.687 34.208 99.7908 32.448L100.799 17.376L97.2948 18.432C97.0708 18.048 96.7988 17.472 96.4788 16.704C96.1588 15.904 95.9668 15.136 95.9028 14.4L102.383 11.232C102.703 11.264 103.167 11.44 103.775 11.76C104.383 12.08 104.975 12.432 105.551 12.816C106.159 13.2 106.623 13.52 106.943 13.776L105.599 24.336V30.864L109.871 29.568ZM118.885 31.392L130.261 28.608C130.485 28.896 130.709 29.456 130.933 30.288C131.189 31.12 131.301 31.856 131.269 32.496C129.925 33.072 128.565 33.632 127.189 34.176C125.845 34.72 124.597 35.216 123.445 35.664C122.325 36.112 121.413 36.48 120.709 36.768C119.717 36.512 118.677 36.112 117.589 35.568C116.501 35.024 115.509 34.384 114.613 33.648C113.717 32.88 113.077 32.112 112.693 31.344L113.365 16.656C113.813 15.856 114.437 15.056 115.237 14.256C116.069 13.424 116.885 12.672 117.685 12C119.541 11.584 121.349 11.328 123.109 11.232C124.901 11.136 126.613 11.216 128.245 11.472C128.661 11.728 129.189 12.16 129.829 12.768C130.501 13.376 130.997 13.872 131.317 14.256L130.645 21.936C129.429 22.352 128.101 22.352 126.661 21.936L126.037 16.368C124.981 16.272 123.941 16.256 122.917 16.32C121.893 16.384 120.821 16.56 119.701 16.848C119.253 18.32 118.933 19.92 118.741 21.648C118.549 23.344 118.469 25.04 118.501 26.736C118.533 28.432 118.661 29.984 118.885 31.392ZM141.903 8.496C140.239 7.6 138.735 6.416 137.391 4.944C137.423 4.432 137.631 3.856 138.015 3.216C138.431 2.544 138.911 1.936 139.455 1.392C140.031 0.815999 140.575 0.463999 141.087 0.335999C141.599 0.335999 142.175 0.543999 142.815 0.959999C143.455 1.344 144.047 1.824 144.591 2.4C145.135 2.944 145.455 3.472 145.551 3.984C145.519 4.528 145.295 5.136 144.879 5.808C144.463 6.448 143.983 7.024 143.439 7.536C142.895 8.016 142.383 8.336 141.903 8.496ZM147.183 29.568C147.407 29.952 147.679 30.544 147.999 31.344C148.319 32.112 148.511 32.864 148.575 33.6L142.095 36.768C139.663 35.648 137.999 34.208 137.103 32.448L138.111 17.376L134.607 18.432C134.383 18.048 134.111 17.472 133.791 16.704C133.471 15.904 133.279 15.136 133.215 14.4L139.695 11.232C140.015 11.264 140.479 11.44 141.087 11.76C141.695 12.08 142.287 12.432 142.863 12.816C143.471 13.2 143.935 13.52 144.255 13.776L142.911 24.336V30.864L147.183 29.568ZM162.39 11.232C163.67 11.36 164.854 11.808 165.942 12.576C167.03 13.344 167.99 14.272 168.822 15.36C169.654 16.416 170.294 17.52 170.742 18.672L170.358 30.192C170.102 30.704 169.702 31.328 169.158 32.064C168.646 32.768 168.07 33.456 167.43 34.128C166.822 34.8 166.214 35.36 165.606 35.808C164.646 36.096 163.734 36.32 162.87 36.48C162.006 36.672 161.03 36.768 159.942 36.768C158.886 36.768 157.558 36.704 155.958 36.576C155.318 36.32 154.566 35.872 153.702 35.232C152.838 34.56 152.054 33.824 151.35 33.024C150.646 32.192 150.198 31.408 150.006 30.672L150.63 17.616C150.886 16.976 151.222 16.272 151.638 15.504C152.086 14.704 152.566 13.936 153.078 13.2C153.622 12.464 154.15 11.904 154.662 11.52C155.494 11.744 156.214 12.096 156.822 12.576C157.43 13.024 157.894 13.472 158.214 13.92C157.35 14.944 156.71 16.256 156.294 17.856C155.878 19.456 155.622 21.12 155.526 22.848C155.43 24.576 155.462 26.192 155.622 27.696C155.814 29.168 156.07 30.32 156.39 31.152C157.734 31.408 159.078 31.504 160.422 31.44C161.798 31.344 163.078 31.136 164.262 30.816C164.934 28.864 165.302 26.88 165.366 24.864C165.43 22.816 165.286 21.04 164.934 19.536C163.846 18.704 162.854 18.048 161.958 17.568C161.094 17.056 160.086 16.576 158.934 16.128C159.51 15.072 160.038 14.208 160.518 13.536C161.03 12.832 161.654 12.064 162.39 11.232ZM179.009 16.704C179.489 17.696 180.241 18.576 181.265 19.344C182.289 20.08 183.441 20.864 184.721 21.696C186.001 22.496 187.265 23.456 188.513 24.576C189.793 25.664 190.929 27.056 191.921 28.752C191.665 30.224 191.201 31.616 190.529 32.928C189.857 34.24 189.041 35.264 188.081 36C186.513 36.416 184.785 36.64 182.897 36.672C181.009 36.736 178.993 36.56 176.849 36.144C176.433 35.824 175.953 35.424 175.409 34.944C174.865 34.432 174.385 33.904 173.969 33.36L174.209 27.072C174.753 26.88 175.393 26.768 176.129 26.736C176.865 26.672 177.537 26.72 178.145 26.88L178.913 32.112C180.321 32.336 181.761 32.352 183.233 32.16C184.737 31.936 185.985 31.584 186.977 31.104C186.177 30.048 185.169 29.104 183.953 28.272C182.769 27.44 181.521 26.624 180.209 25.824C178.929 24.992 177.729 24.048 176.609 22.992C175.521 21.936 174.673 20.64 174.065 19.104C174.161 18.4 174.369 17.6 174.689 16.704C175.009 15.776 175.393 14.896 175.841 14.064C176.321 13.232 176.833 12.576 177.377 12.096C179.457 11.52 181.441 11.232 183.329 11.232C185.217 11.2 187.233 11.408 189.377 11.856C189.793 12.112 190.225 12.56 190.673 13.2C191.153 13.84 191.521 14.352 191.777 14.736L191.105 20.688C190.561 20.88 189.937 20.976 189.233 20.976C188.529 20.976 187.857 20.912 187.217 20.784L186.785 15.888C185.505 15.792 184.177 15.808 182.801 15.936C181.457 16.064 180.193 16.32 179.009 16.704Z" fill="black"/>
</svg>
